<?xml version="1.0" encoding="utf-8"?>
<!-- Generator: Adobe Illustrator 25.0.0, SVG Export Plug-In . SVG Version: 6.00 Build 0)  -->
<svg version="1.1" id="Layer_1" xmlns="http://www.w3.org/2000/svg" xmlns:xlink="http://www.w3.org/1999/xlink" x="0px" y="0px"
	 viewBox="0 0 792 1224" style="enable-background:new 0 0 792 1224;" xml:space="preserve">
<style type="text/css">
	.st0{fill:#606060;stroke:#262626;stroke-width:4.0862;stroke-miterlimit:10;}
	.st1{fill:#FFFFFF;}
</style>
<rect x="291.05" y="184.99" transform="matrix(-1.836970e-16 1 -1 -1.836970e-16 598.8516 -106.0518)" class="st0" width="122.81" height="122.81"/>
<rect x="291.05" y="367.76" transform="matrix(-1.836970e-16 1 -1 -1.836970e-16 781.6132 76.7098)" class="st0" width="122.81" height="122.81"/>
<rect x="291.05" y="550.52" transform="matrix(-1.836970e-16 1 -1 -1.836970e-16 964.3748 259.4714)" class="st0" width="122.81" height="122.81"/>
<rect x="291.05" y="733.28" transform="matrix(-1.836970e-16 1 -1 -1.836970e-16 1147.1364 442.233)" class="st0" width="122.81" height="122.81"/>
<rect x="291.05" y="916.04" transform="matrix(-1.836970e-16 1 -1 -1.836970e-16 1329.8979 624.9946)" class="st0" width="122.81" height="122.81"/>
<g transform="translate(0,-952.36216)">
	<path class="st1" d="M360.95,1155.57c-4.84,0-8.77,3.92-8.77,8.77s3.92,8.77,8.77,8.77s8.77-3.92,8.77-8.77
		S365.79,1155.57,360.95,1155.57z M339.03,1172.25c-2.24,0-4.03,0.93-5.11,3.29l-7.9,18.35c-1.05,2.44,0.62,5.22,3.16,6.02
		l4.85,1.51c2.54,0.79,5.22-0.62,6.02-3.16l6.02-19.3c0.79-2.54-0.62-5.22-3.16-6.02c-1.01-0.32-1.98-0.54-2.88-0.63
		C339.68,1172.27,339.35,1172.25,339.03,1172.25z M355.64,1174.67c-2.96,0.08-6.03,1.81-6.97,4.82l-5.74,18.51l-0.67,2.17
		c-0.29,0.95-0.16,2.42,0.75,4.18l5.07,9.77l1.43,2.77l11.59,22.35c1.22,2.45,4.21,3.42,6.64,2.16c2.43-1.26,3.36-4.26,2.06-6.67
		l-15.56-30.01l2.32-6.78l1.7-4.96c2.78,6.41,11.19,9.25,16.65,11.1l-2.97,36.18c-0.07,0.82,0.55,1.55,1.37,1.61
		c0.82,0.07,1.55-0.55,1.61-1.37l2.97-36.2c0.95-0.34,1.73-1.1,2.08-2.13c0.54-1.59-0.16-3.3-1.57-4.09l0.48-5.85
		c0.07-0.82-0.44-1.61-1.45-1.61c-1.02,0-1.46,0.73-1.53,1.37l-0.41,5.02c-4.89-1.75-8.26-3.35-9.86-5.24
		c-0.96-1.14-1.85-2.68-2.44-4.98c-0.64-2.41-0.78-4.95-1.26-7.79S358.6,1174.58,355.64,1174.67L355.64,1174.67z M340.6,1205.5
		l-5.45,17.72l-10.71,10.23c-2.01,1.86-2.1,5-0.21,6.98c1.89,1.98,5.03,2.03,6.98,0.11l11.66-11.13c0.62-0.59,1.07-1.33,1.32-2.15
		l2.8-9.45L340.6,1205.5z"/>
</g>
<g>
	<path class="st1" d="M340.81,461.22c-1.72,0.62-2.62,2.51-1.99,4.23c0.62,1.72,2.52,2.62,4.23,2l8.3-2.98l-9.64-3.57L340.81,461.22
		z"/>
	<path class="st1" d="M365.02,459.56c1.72-0.62,2.61-2.51,2-4.23c-0.62-1.72-2.51-2.62-3.95-2.1l-8.66,3.11l9.69,3.55L365.02,459.56
		z"/>
	<path class="st1" d="M365.02,461.22l-2.31-0.83l-9.8-3.51l-9.87-3.55c-1.72-0.62-3.62,0.28-4.23,2c-0.62,1.72,0.28,3.62,1.99,4.23
		l2.31,0.83l9.8,3.52l9.87,3.54c1.72,0.62,3.62-0.28,4.24-2C367.63,463.72,366.74,461.83,365.02,461.22z"/>
	<path class="st1" d="M353.03,454.23c0,0-14.42-5.94-6.83-14.64c0,0,6.04-5.53,6.02-14.63c0,0,5.94,7.74,3.66,14.03
		C353.98,444.28,350.85,447.96,353.03,454.23z"/>
	<path class="st1" d="M354.58,453.05c0,0-0.74-4.28,1.56-8.43c0,0,2.84-4.84,2.09-9.93c0,0,4.27,7.46,3.43,10.82
		C360.99,448.17,358.12,450.91,354.58,453.05z"/>
	<path class="st1" d="M308.7,435.84c0-1.05-1.08-1.88-2.41-1.88c-1.34,0-2.41,0.84-2.41,1.88v11.68h4.81V435.84z"/>
	<path class="st1" d="M397.12,435.84c0-1.05,1.08-1.88,2.41-1.88c1.33,0,2.41,0.84,2.41,1.88v11.68h-4.82V435.84z"/>
	<polygon class="st1" points="315.52,432.3 309.57,437.9 309.57,435.99 315.53,430.41 	"/>
	<polygon class="st1" points="390.3,432.3 396.25,437.9 396.25,435.99 390.29,430.41 	"/>
	<path class="st1" d="M364.67,403.46h0.02l-9.61-9.66c-0.01-0.01-0.04-0.01-0.05-0.04c-1.18-1.13-3.06-1.13-4.23,0
		c-0.01,0.02-0.03,0.02-0.05,0.04l-9.61,9.66h0.02l-24.72,24.83v19.13l21.11,0.09c0,0-0.69-26.35,15.37-25.74
		c16.06-0.6,15.37,25.74,15.37,25.74l21.11-0.09V428.3L364.67,403.46z"/>
</g>
<g>
	<path class="st1" d="M372.92,583.12h-6.17v-6.17c0-3.41-2.76-6.17-6.17-6.17h-12.34c-3.41,0-6.17,2.76-6.17,6.17v6.17h-6.17
		c-5.68,0-10.29,4.61-10.29,10.29v8.23c0,3.41,2.76,6.17,6.17,6.17h10.29v-2.06c0-1.14,0.92-2.06,2.06-2.06
		c1.14,0,2.06,0.92,2.06,2.06v2.06h16.46v-2.06c0-1.14,0.92-2.06,2.06-2.06s2.06,0.92,2.06,2.06v2.06h10.29
		c3.41,0,6.17-2.76,6.17-6.17v-8.23C383.2,587.73,378.6,583.12,372.92,583.12z M346.17,576.95c0-1.14,0.92-2.06,2.06-2.06h12.34
		c1.14,0,2.06,0.92,2.06,2.06v6.17h-16.46V576.95z"/>
	<path class="st1" d="M321.48,616.04h-2.06c-3.41,0-6.17,2.76-6.17,6.17v12.34c0,4.94,3.52,9.18,8.37,10.1
		c-0.09-0.62-0.14-1.25-0.14-1.87V616.04z"/>
	<path class="st1" d="M389.38,616.04h-2.06v26.75c-0.01,0.63-0.05,1.25-0.14,1.87c4.86-0.92,8.37-5.16,8.37-10.1v-12.34
		C395.55,618.8,392.79,616.04,389.38,616.04z"/>
	<path class="st1" d="M366.75,611.92v4.11c0,1.14-0.92,2.06-2.06,2.06s-2.06-0.92-2.06-2.06v-4.11h-16.46v4.11
		c0,1.14-0.92,2.06-2.06,2.06c-1.14,0-2.06-0.92-2.06-2.06v-4.11h-10.29c-2.23,0.01-4.4-0.71-6.17-2.06v32.92
		c0,5.68,4.61,10.29,10.29,10.29h37.03c5.68,0,10.29-4.61,10.29-10.29v-32.92c-1.77,1.35-3.94,2.07-6.17,2.06H366.75z"/>
</g>
<g>
	<path class="st1" d="M380.91,811.9c-0.19-0.56-0.56-1.12-0.94-1.5c-0.37-0.47-0.94-1.12-1.59-1.87c-1.12,3-2.15,5.53-2.72,6.84
		c-0.09,0.19-0.09,0.37-0.09,0.66l0.47,2.34l6.18,10.77c0.37,0.66,1.22,1.03,1.97,0.84l1.78-0.47c1.03-0.28,1.59-1.31,1.22-2.34
		L380.91,811.9z"/>
	<path class="st1" d="M328.47,806.94c-0.84-0.56-1.59-1.4-2.34-2.43c-1.12,3-2.25,6.27-2.43,7.02c-0.28,1.12-2.34,12.18-3.09,16.39
		c-0.19,0.94,0.37,1.78,1.31,1.97l2.25,0.56c0.94,0.28,1.87-0.28,2.15-1.22l3.37-12.83c0.09-0.28,0.19-0.47,0.28-0.75
		c0-0.19-0.19-0.84-0.19-0.84C329.5,813.3,328.84,809.84,328.47,806.94z"/>
	<path class="st1" d="M396.65,782.21c-4.68-7.96-16.48-15.17-16.48-15.17s-0.19-1.97-1.69-4.03c-0.37-0.47-1.12-0.56-1.5-0.09
		c-2.06,2.15-5.24,6.84-8.62,12.27c-0.47-0.75-1.31-1.22-2.25-1.03c-2.06,0.37-4.5,0.47-5.53,0.37c-0.56-1.78-1.22-5.62-1.59-7.87
		c-0.09-0.66-0.56-1.22-1.12-1.59c-0.37-0.28-0.84-0.56-1.4-0.84c-3.65-1.5-4.78-0.56-7.96,2.9c-2.62,3-5.06,7.59-5.81,11.52
		c-0.09,0.37-0.28,0.84-0.28,1.4c-0.19,1.5,0.66,2.81,2.06,3.37c1.5,0.66,4.03,1.5,6.09,1.97c2.15,0.56,4.59,1.22,6.84,2.15
		c-0.28,2.43-1.78,8.05-3.28,12.64c-0.47,1.4,0.28,3,1.78,3.47c0.37,0.09,0.75,0.19,1.12,0.09c1.03-0.09,1.97-0.84,2.34-1.87
		c0.09-0.19,1.22-3.75,2.25-7.49c1.69-6.56,2.06-9.83-0.56-11.14c-2.62-1.31-5.34-2.06-7.77-2.72c0.84-2.06,1.87-4.4,2.72-6.37
		c0.28,1.03,0.56,1.97,0.84,2.62c0.28,0.66,0.94,2.15,5.06,2.15c1.12,0,2.62-0.09,4.4-0.37c-0.75,1.22-1.5,2.43-2.15,3.65
		c-0.09,0.09-0.19,0.28-0.28,0.37c2.43,2.9,1.12,7.96,0,12.46c-1.03,3.93-2.25,7.59-2.25,7.68c-0.66,1.87-2.34,3.18-4.21,3.47
		c-0.19,0-0.37,0-0.56,0c-0.56,0-1.12-0.09-1.59-0.28c-2.62-0.84-4.03-3.75-3.18-6.37c1.22-3.75,2.34-7.77,2.9-10.4
		c-1.69-0.56-3.37-1.03-4.87-1.4c-1.87-0.47-4.68-1.4-6.46-2.15c-1.12-0.47-1.97-1.22-2.53-2.15c-3.37-0.28-6.84-0.19-10.4,0.75
		c-1.87,0.56-3.18,1.31-4.21,2.34c-3.75-0.47-9.65-0.19-11.52,5.24c-2.44,6.27-5.34,8.99-6.56,10.02c-0.37,0.28-0.56,0.84-0.37,1.31
		c0.66,1.97,2.9,6.27,8.15,2.15c5.62-4.5,1.78-12.83,8.05-14.52c-1.03,6.09,3.75,13.95,6.46,14.8c0.28,3.37,1.4,8.62,1.5,9.46
		c0.19,1.22,4.4,11.52,5.9,15.17c0.28,0.75,1.12,1.22,1.87,1.03l2.34-0.37c1.03-0.19,1.59-1.22,1.4-2.15l-3.56-12.64
		c-0.19-0.84-0.19-1.78,0.28-2.53c1.4-2.43,2.15-4.87,2.44-6.93c7.21,2.53,16.39,2.25,23.6,0.94c-0.09,2.81-0.66,5.71-0.84,7.12
		c-0.09,0.56,0,1.22,0.19,1.69l5.24,14.05c0.28,0.66,0.94,1.12,1.59,1.12h1.5c1.12,0,1.87-1.03,1.69-2.06l-2.53-12.92
		c-0.09-0.66-0.09-1.4,0.19-2.06c0.94-2.15,3.28-7.68,4.78-12.74c2.53-4.68,1.97-13.39,2.81-19.11c0-0.28,0.37-0.37,0.56-0.09
		c2.15,3.37,6.27,3,8.71,2.9c1.5-0.09,2.72,0.56,3.37,1.03c0.56,0.37,1.31,0.28,1.78-0.19c0.56-0.66,1.22-1.59,1.4-2.72
		C396.93,783.05,396.83,782.59,396.65,782.21z"/>
	<ellipse class="st1" cx="359.93" cy="758.05" rx="5.71" ry="5.71"/>
</g>
<path class="st1" d="M367.94,943.23c0.11-0.28,0.25-0.55,0.39-0.81c0.04-0.06,0.07-0.12,0.11-0.18c0.15-0.25,0.31-0.49,0.49-0.71
	c0.02-0.02,0.03-0.04,0.05-0.06c0.17-0.21,0.36-0.4,0.55-0.58c0.05-0.05,0.1-0.09,0.14-0.13c0.21-0.19,0.43-0.36,0.66-0.52
	c0.03-0.02,0.07-0.04,0.1-0.06c0.21-0.14,0.43-0.26,0.65-0.37c0.06-0.03,0.11-0.05,0.17-0.08c0.25-0.12,0.51-0.22,0.78-0.3
	c0.05-0.01,0.1-0.03,0.14-0.04c0.24-0.07,0.48-0.12,0.73-0.16c0.05-0.01,0.11-0.02,0.16-0.03c0.28-0.04,0.56-0.06,0.85-0.06
	c0.02,0,0.04,0,0.06,0c0.08,0,0.17,0.01,0.25,0.01c0.09,0,0.18,0,0.28,0.01c0.12,0.01,0.24,0.03,0.36,0.04
	c0.08,0.01,0.17,0.02,0.25,0.03c0.14,0.03,0.29,0.06,0.43,0.1c0.06,0.02,0.12,0.03,0.19,0.05c0.21,0.06,0.41,0.12,0.61,0.2
	c3.33,1.31,4.97,5.06,3.67,8.39c-0.11,0.29-0.25,0.55-0.39,0.81c-0.04,0.06-0.07,0.12-0.11,0.18c-0.15,0.25-0.31,0.49-0.49,0.71
	c-0.02,0.02-0.04,0.04-0.05,0.06c-0.17,0.21-0.35,0.4-0.54,0.58c-0.05,0.05-0.1,0.09-0.15,0.14c-0.21,0.19-0.43,0.36-0.66,0.51
	c-0.04,0.02-0.07,0.05-0.11,0.07c-0.21,0.14-0.42,0.25-0.64,0.36c-0.06,0.03-0.11,0.06-0.17,0.09c-0.25,0.12-0.51,0.22-0.77,0.3
	c-0.05,0.02-0.1,0.03-0.16,0.04c-0.23,0.07-0.47,0.12-0.71,0.16c-0.06,0.01-0.12,0.02-0.18,0.03c-0.28,0.04-0.56,0.06-0.84,0.06
	c-0.02,0-0.04,0.01-0.07,0.01c-0.09,0-0.18-0.01-0.27-0.01c-0.08,0-0.16-0.01-0.25-0.01c-0.13-0.01-0.26-0.03-0.4-0.05
	c-0.07-0.01-0.14-0.02-0.22-0.03c-0.15-0.03-0.31-0.07-0.46-0.11c-0.05-0.01-0.1-0.02-0.15-0.04c-0.21-0.06-0.41-0.13-0.61-0.2
	C368.28,950.32,366.64,946.56,367.94,943.23z M342.25,966.7C342.25,966.7,342.25,966.71,342.25,966.7c0.17,0.35,0.37,0.69,0.61,1.03
	l0.01,0c0.15,0.24,0.32,0.48,0.53,0.68l8.97,8.93l0.57,0.57l0,0l3.02,3l-2.54,18.36c-0.26,1.95,1.11,3.73,3.06,3.99
	c0.16,0.02,0.32,0.03,0.48,0.03c0.05,0,0.09-0.01,0.14-0.01c0.09-0.01,0.18-0.02,0.27-0.03c0.13-0.01,0.25-0.04,0.38-0.06
	c0.1-0.02,0.19-0.05,0.29-0.08c0.05-0.02,0.1-0.02,0.15-0.04h-0.04c1.21-0.44,2.15-1.51,2.33-2.87l2.79-20.06
	c0.03-0.23,0.03-0.45,0.02-0.67l-0.01,0.01c-0.03-0.57-0.19-1.1-0.47-1.57h0.01c-0.01-0.01-0.01-0.02-0.02-0.02
	c-0.15-0.25-0.32-0.48-0.52-0.69c-0.06-0.06-0.1-0.13-0.15-0.18l-11.78-11.73c5.1-7.15,10.5-7.57,10.5-7.57l1.45,7.8
	c0.18,0.95,0.79,1.7,1.58,2.12c0.15,0.11,0.3,0.2,0.48,0.29l8.79,4.18c1.54,0.73,3.38,0.07,4.11-1.48c0.73-1.54,0.07-3.38-1.48-4.11
	l-0.27-0.13c0,0,0,0,0,0l-7.42-3.54l-1.53-8.07c-0.03-0.14-0.07-0.26-0.12-0.39c0.79-1.8,0.65-3.95-0.61-5.64
	c-0.33-0.44-0.71-0.82-1.13-1.13l0,0c-2.98-2.5-8.79-0.21-8.79-0.21s-9.99,4.05-13.62,13.18C341.45,962.29,341.1,964.4,342.25,966.7
	L342.25,966.7L342.25,966.7z M377.14,973.23c-0.04,0.08-0.08,0.15-0.14,0.2c-0.18,0.16-0.47,0.24-0.75,0.28
	c-0.57,0.24-1.18,0.37-1.81,0.37c-0.06,0-0.11-0.01-0.17-0.01c-0.5,0.32-0.86,0.85-0.94,1.49c-0.14,1.15,0.67,2.2,1.82,2.34
	c0.28,0.03,2.79,0.29,4.62-1.32c0.78-0.69,1.7-1.95,1.7-4.13c0-2.5-1.2-4.11-2.68-5.03c0.04,0.1,0.1,0.19,0.14,0.29
	c0.43,1.2,0.37,2.49-0.18,3.65C378.38,972.12,377.82,972.76,377.14,973.23z M394.55,996.51c0,9.17-7.46,16.63-16.63,16.63
	c-7.55,0-13.93-5.07-15.96-11.97c0.07-0.24,0.14-0.48,0.17-0.74l1.8-12.88c1.18-1.83,2.7-3.42,4.47-4.66
	c-0.2-0.8-0.38-1.59-0.53-2.36l-3.56,4.24l0.61-4.4c0.21-1.58-0.3-3.14-1.41-4.3c-0.07-0.09-0.14-0.17-0.21-0.24l-2.12-2.11h5.82
	c-0.06-1.03-0.08-1.93-0.09-2.71l4.28,2.03c0.12,2.15,0.41,4.89,1.07,7.83c1.77-0.64,3.67-1.01,5.65-1.01
	C387.09,979.88,394.55,987.34,394.55,996.51z M390.36,996.51c0-6.86-5.58-12.44-12.44-12.44c-1.59,0-3.11,0.31-4.51,0.86
	c1.24,3.59,3.12,7.19,6,10.11c0.81,0.82,0.8,2.15-0.02,2.97c-0.41,0.4-0.94,0.6-1.47,0.6c-0.54,0-1.08-0.21-1.49-0.62
	c-3.16-3.2-5.27-7.01-6.69-10.81c-2.6,2.28-4.25,5.62-4.25,9.34c0,6.86,5.58,12.44,12.44,12.44
	C384.78,1008.95,390.36,1003.37,390.36,996.51z M351.74,1002.16c-2.37,0-4.41-1.47-5.24-3.55h-5.04
	c-1.03,8.18-8.03,14.54-16.49,14.54c-9.17,0-16.63-7.46-16.63-16.63c0-9.17,7.46-16.63,16.63-16.63c3.31,0,6.38,0.98,8.98,2.65
	l5.78-6.9l-1.56-3.37h-3.48c-0.67,0-1.3-0.32-1.69-0.86c-0.4-0.54-0.51-1.23-0.31-1.87c0.43-1.36,2.06-3.67,5.41-3.67
	c0.68,0,1.4,0.1,2.14,0.3c0.28,0.85,0.68,1.7,1.24,2.52l0.11,0.16c0.02,0.03,0.04,0.06,0.07,0.1l0.46,0.67l0.09-0.02
	c0.01,0.01,0.01,0.01,0.02,0.02l2.66,2.64h-2.09l0.68,1.47h2.88l4.21,4.19h-5.14l6.02,12.96c0.1,0,0.2-0.02,0.31-0.02
	c0.39,0,0.76,0.06,1.13,0.13l-1.12,8.06c-0.14,1.08,0.05,2.14,0.53,3.08C352.11,1002.15,351.93,1002.16,351.74,1002.16z
	 M337.22,998.61h-12.25c-0.81,0-1.56-0.47-1.9-1.21c-0.34-0.74-0.23-1.61,0.29-2.23l7.87-9.39c-1.84-1.08-3.97-1.71-6.26-1.71
	c-6.86,0-12.44,5.58-12.44,12.44c0,6.86,5.58,12.44,12.44,12.44C331.12,1008.95,336.22,1004.47,337.22,998.61z M337.22,994.41
	c-0.38-2.24-1.36-4.28-2.77-5.94l-4.98,5.94H337.22z M347.64,992.65l-5.95-12.82l-4.53,5.4c2.3,2.48,3.85,5.66,4.3,9.19h5.04
	C346.77,993.76,347.16,993.15,347.64,992.65z M360.55,1003.51c-0.94,0.91-2.21,1.47-3.6,1.47c-0.23,0-0.47-0.02-0.69-0.05
	c-1.36-0.18-2.57-0.87-3.42-1.94l0.09,0.15c-0.92,0.22-1.6,1.05-1.6,2.04c0,1.16,0.94,2.1,2.1,2.1h5.87c1.16,0,2.1-0.94,2.1-2.1
	C361.39,1004.49,361.06,1003.89,360.55,1003.51z"/>
</svg>
