<?xml version="1.0" encoding="utf-8"?>
<!-- Generator: Adobe Illustrator 25.0.0, SVG Export Plug-In . SVG Version: 6.00 Build 0)  -->
<svg version="1.1" id="Layer_1" xmlns="http://www.w3.org/2000/svg" xmlns:xlink="http://www.w3.org/1999/xlink" x="0px" y="0px"
	 viewBox="0 0 792 1224" style="enable-background:new 0 0 792 1224;" xml:space="preserve">
<style type="text/css">
	.st0{fill:#2B2B2B;}
</style>
<g>
	<g>
		<g>
			<g>
				<path class="st0" d="M348.83,450.76c1.49-0.73-1.11,4.14,10.27-0.78c11.38-4.92,3.12-21.1-2.44-21.86
					c-5.56-0.75-3.39-2.92-8.09-5.49c-4.7-2.57-12.7,1.87-12.7,1.87s-8.41,3.65-9.23,8.95c-0.82,5.3,2.23,4.89-0.57,9.76
					c-2.79,4.87,5.02,21.28,15.87,15.23C352.79,452.4,347.34,451.5,348.83,450.76z"/>
				<path class="st0" d="M341.49,458.9C341.49,458.9,341.49,458.9,341.49,458.9c-5.5,2.71-9.62-0.4-11.59-2.5
					c-3.7-3.94-5.63-10.39-3.97-13.28c1.56-2.72,1.27-3.71,0.86-5.09c-0.3-1.03-0.68-2.3-0.32-4.61c0.7-4.52,6.82-7.86,8.68-8.78
					c0.4-0.2,0.64-0.3,0.66-0.31c0,0,0.23-0.13,0.63-0.33c1.86-0.92,8.23-3.74,12.23-1.54c2.05,1.12,2.83,2.2,3.47,3.06
					c0.85,1.16,1.46,1.99,4.56,2.41c3.3,0.45,7.25,5.91,8.12,11.25c0.48,2.93,0.4,8.34-5.63,10.96c-8.49,3.67-9.37,1.94-9.85,1.01
					c-0.17-0.33-0.19-0.35-0.42-0.24c-0.23,0.11-0.22,0.14-0.06,0.48c0.45,0.94,1.28,2.69-6.81,7.21
					C341.85,458.71,341.67,458.81,341.49,458.9z M335.31,424.98c-1.82,0.9-7.81,4.16-8.48,8.5c-0.35,2.23,0,3.41,0.31,4.45
					c0.41,1.41,0.74,2.52-0.9,5.38c-1.58,2.77,0.32,9,3.92,12.84c1.9,2.02,5.87,5.03,11.15,2.42c0,0,0,0,0,0
					c0.18-0.09,0.36-0.18,0.54-0.28c7.78-4.34,7.02-5.95,6.65-6.72c-0.15-0.31-0.33-0.69,0.24-0.97c0.56-0.28,0.76,0.1,0.91,0.4
					c0.39,0.76,1.2,2.35,9.37-1.18c0.19-0.08,0.37-0.17,0.55-0.26c5.27-2.6,5.3-7.57,4.86-10.31c-0.85-5.2-4.64-10.51-7.8-10.94
					c-3.26-0.44-3.94-1.38-4.81-2.56c-0.64-0.88-1.37-1.87-3.34-2.95c-3.85-2.11-10.07,0.65-11.89,1.55
					c-0.4,0.2-0.63,0.32-0.63,0.32C335.95,424.68,335.71,424.78,335.31,424.98z"/>
			</g>
		</g>
		<g>
			<g>
				
					<ellipse transform="matrix(0.8968 -0.4425 0.4425 0.8968 -147.7051 187.7306)" class="st0" cx="328.5" cy="410.43" rx="5.83" ry="8.7"/>
				<path class="st0" d="M332.43,418.4c-2.97,1.47-7.16-0.91-9.33-5.31s-1.51-9.16,1.46-10.63c2.97-1.47,7.16,0.91,9.33,5.31
					C336.06,412.17,335.41,416.93,332.43,418.4z M324.73,402.8c-2.79,1.38-3.37,5.92-1.29,10.13c2.08,4.21,6.04,6.52,8.83,5.14
					c2.79-1.38,3.37-5.92,1.29-10.13C331.48,403.73,327.52,401.42,324.73,402.8z"/>
			</g>
		</g>
		<g>
			<g>
				<polyline class="st0" points="323.71,404.11 322.37,398.02 326.25,402.86 				"/>
				<polygon class="st0" points="323.89,404.07 323.52,404.15 322.02,397.28 326.39,402.74 326.1,402.97 322.72,398.75 				"/>
			</g>
		</g>
		<g>
			<g>
				
					<ellipse transform="matrix(0.7088 -0.7054 0.7054 0.7088 -206.9776 346.7558)" class="st0" cx="316.54" cy="424.09" rx="4.84" ry="8.56"/>
				<path class="st0" d="M321.9,430.86c-2.22,1.1-5.98-0.26-8.93-3.22c-3.4-3.42-4.57-7.79-2.61-9.74c0.23-0.23,0.5-0.42,0.8-0.57
					c2.22-1.1,5.98,0.26,8.93,3.22c3.4,3.42,4.57,7.79,2.61,9.74C322.47,430.52,322.2,430.71,321.9,430.86z M311.33,417.66
					c-0.26,0.13-0.5,0.3-0.7,0.5c-1.82,1.81-0.65,5.94,2.61,9.21c2.84,2.85,6.42,4.18,8.5,3.15c0.26-0.13,0.5-0.3,0.7-0.5
					c1.82-1.81,0.65-5.94-2.61-9.21C316.99,417.95,313.42,416.63,311.33,417.66z"/>
			</g>
		</g>
		<g>
			<g>
				<path class="st0" d="M310.76,421.26c0,0-3.32-5.8-2.64-6.82c0,0,4.02,5.92,4.66,5.54"/>
				<path class="st0" d="M310.59,421.35c-0.56-0.98-3.34-5.95-2.63-7.01l0.15-0.23l0.15,0.23c1.78,2.63,3.99,5.47,4.44,5.48
					l0.16,0.33c0,0-0.01,0-0.01,0.01c-0.65,0.32-2.83-2.59-4.65-5.25c0.04,1.17,1.6,4.32,2.71,6.27L310.59,421.35z"/>
			</g>
		</g>
		<g>
			<g>
				<path class="st0" d="M319.79,438.65c2.75,2.54,3.58,5.89,1.85,7.49c-1.73,1.59-5.36,0.83-8.11-1.72
					c-2.75-2.54-3.58-5.89-1.85-7.49C313.41,435.34,317.04,436.11,319.79,438.65z"/>
				<path class="st0" d="M321.05,446.77c-1.98,0.98-5.2,0.05-7.64-2.21c-1.76-1.63-2.81-3.64-2.81-5.39c0-0.97,0.33-1.79,0.96-2.37
					c0.21-0.19,0.45-0.36,0.72-0.49c1.98-0.98,5.2-0.05,7.64,2.21c1.76,1.63,2.81,3.64,2.81,5.39c0,0.97-0.33,1.79-0.96,2.37
					C321.56,446.47,321.32,446.63,321.05,446.77z M312.44,436.64c-0.23,0.12-0.45,0.26-0.63,0.43c-0.55,0.51-0.84,1.23-0.84,2.1
					c0,1.64,1.01,3.56,2.69,5.12c2.33,2.16,5.37,3.06,7.22,2.15c0.23-0.12,0.45-0.26,0.63-0.43c0.55-0.51,0.84-1.23,0.84-2.09
					c0-1.64-1.01-3.56-2.69-5.12C317.33,436.63,314.29,435.73,312.44,436.64z"/>
			</g>
		</g>
		<g>
			<g>
				<path class="st0" d="M311.77,439.52c0,0-2.63-4.51-1.99-5.35c0,0,3.23,4.57,3.81,4.24"/>
				<path class="st0" d="M311.61,439.61c-0.45-0.77-2.66-4.66-1.98-5.56l0.15-0.2l0.15,0.21c1.42,2.01,3.2,4.18,3.58,4.18l0.16,0.33
					c0,0-0.01,0.01-0.01,0.01c-0.58,0.29-2.34-1.92-3.81-3.98c0.03,0.93,1.15,3.24,2.07,4.82L311.61,439.61z"/>
			</g>
		</g>
		<g>
			<g>
				<path class="st0" d="M342.18,409.72c0.66,4.67,3.3,8.19,5.9,7.85c2.59-0.33,4.16-4.38,3.5-9.05c-0.66-4.67-3.3-8.18-5.9-7.85
					C343.08,401,341.52,405.05,342.18,409.72z"/>
				<path class="st0" d="M349.02,417.48L349.02,417.48c-0.29,0.14-0.6,0.24-0.92,0.28c-2.69,0.34-5.43-3.25-6.1-8.01
					c-0.59-4.13,0.57-7.91,2.74-8.98c0.29-0.14,0.6-0.24,0.92-0.28c2.69-0.34,5.43,3.25,6.11,8.01
					C352.35,412.63,351.19,416.4,349.02,417.48z M344.9,401.09c-2.03,1-3.1,4.62-2.54,8.6c0.65,4.56,3.2,8.01,5.69,7.7
					c0.28-0.04,0.55-0.12,0.8-0.24c2.03-1,3.1-4.62,2.54-8.6c-0.65-4.56-3.2-8.01-5.69-7.7
					C345.42,400.89,345.15,400.97,344.9,401.09z"/>
			</g>
		</g>
		<g>
			<g>
				<path class="st0" d="M348.06,402.85c0,0-2.6-6.16-3.79-6.25c0,0,2.27,6.78,1.6,7.05"/>
				<path class="st0" d="M348.23,402.78l-0.34,0.15c-0.87-2.06-2.41-5.19-3.3-5.96c1.02,3.08,2.02,6.62,1.35,6.87l-0.14-0.35
					c0.23-0.35-0.68-3.75-1.71-6.82l-0.09-0.27l0.28,0.02C345.53,396.51,347.79,401.73,348.23,402.78z"/>
			</g>
		</g>
		<g>
			<g>
				<path class="st0" d="M356.94,420.32c0.45,3.68,2.55,6.4,4.68,6.09c2.13-0.31,3.5-3.54,3.05-7.22c-0.45-3.68-2.55-6.4-4.68-6.09
					C357.85,413.41,356.49,416.65,356.94,420.32z"/>
				<path class="st0" d="M362.42,426.35L362.42,426.35c-0.25,0.12-0.5,0.2-0.77,0.24c-0.73,0.11-1.49-0.12-2.19-0.65
					c-1.37-1.04-2.41-3.19-2.7-5.6c-0.4-3.27,0.62-6.29,2.44-7.18c0.25-0.12,0.5-0.2,0.77-0.24c0.73-0.11,1.49,0.12,2.19,0.65
					c1.37,1.05,2.41,3.19,2.7,5.6C365.25,422.44,364.23,425.46,362.42,426.35z M359.36,413.49c-1.68,0.83-2.62,3.69-2.23,6.81
					c0.28,2.31,1.26,4.36,2.56,5.35c0.62,0.47,1.28,0.67,1.91,0.58c0.22-0.03,0.45-0.1,0.66-0.21c1.68-0.83,2.62-3.69,2.23-6.81
					c-0.28-2.31-1.26-4.36-2.56-5.35c-0.62-0.47-1.28-0.67-1.91-0.58C359.79,413.32,359.57,413.39,359.36,413.49z"/>
			</g>
		</g>
		<g>
			<g>
				<path class="st0" d="M361.9,414.78c0,0-2.01-4.81-2.99-4.86c0,0,1.73,5.31,1.17,5.54"/>
				<path class="st0" d="M362.07,414.71l-0.34,0.14c-0.69-1.65-1.81-3.89-2.5-4.55c1.06,3.32,1.38,5.11,0.94,5.33
					c0,0-0.01,0-0.01,0.01l-0.14-0.34c0.17-0.3-0.53-3-1.28-5.31l-0.08-0.26l0.27,0.01C359.96,409.78,361.73,413.89,362.07,414.71z"
					/>
			</g>
		</g>
	</g>
	<g>
		<g>
			<g>
				<path class="st0" d="M453.89,513.97c1.6-0.45-1.85,3.87,10.24,1.12c12.09-2.75,6.93-20.18,1.6-21.93
					c-5.33-1.76-2.79-3.49-6.94-6.88c-4.15-3.39-12.83-0.48-12.83-0.48s-8.94,2.05-10.71,7.11c-1.78,5.06,1.29,5.22-2.34,9.49
					c-3.64,4.28,1.04,21.84,12.81,17.88C457.48,516.31,452.29,514.42,453.89,513.97z"/>
				<path class="st0" d="M445.18,520.63C445.18,520.63,445.18,520.63,445.18,520.63c-5.9,1.66-9.38-2.16-10.94-4.58
					c-2.92-4.55-3.63-11.24-1.48-13.78c2.03-2.39,1.92-3.42,1.78-4.84c-0.11-1.06-0.24-2.39,0.53-4.59
					c1.51-4.31,8.15-6.48,10.14-7.04c0.43-0.12,0.69-0.18,0.7-0.18c0,0,0.25-0.08,0.68-0.2c1.99-0.56,8.77-2.17,12.31,0.72
					c1.81,1.48,2.38,2.68,2.85,3.64c0.62,1.29,1.07,2.23,4.04,3.21c3.16,1.04,6.04,7.14,5.92,12.54c-0.07,2.97-1.13,8.27-7.54,9.75
					c-9.02,2.05-9.57,0.19-9.87-0.81c-0.11-0.36-0.12-0.38-0.37-0.31c-0.25,0.07-0.25,0.1-0.15,0.46c0.27,1.01,0.76,2.88-8.01,5.84
					C445.57,520.51,445.37,520.58,445.18,520.63z M445.32,486.15c-1.95,0.55-8.44,2.66-9.89,6.81c-0.75,2.13-0.62,3.35-0.51,4.43
					c0.15,1.46,0.27,2.62-1.86,5.12c-2.06,2.43-1.33,8.91,1.51,13.34c1.5,2.34,4.86,6.02,10.52,4.42c0,0,0,0,0,0
					c0.19-0.05,0.38-0.11,0.58-0.18c8.45-2.84,7.99-4.56,7.77-5.39c-0.09-0.33-0.2-0.74,0.41-0.91c0.61-0.17,0.73,0.24,0.82,0.56
					c0.24,0.82,0.75,2.53,9.43,0.55c0.2-0.05,0.4-0.1,0.59-0.15c5.65-1.59,6.6-6.47,6.66-9.24c0.12-5.26-2.64-11.18-5.67-12.18
					c-3.12-1.03-3.62-2.07-4.26-3.4c-0.47-0.98-1-2.09-2.75-3.51c-3.4-2.78-10.02-1.2-11.97-0.65c-0.43,0.12-0.67,0.2-0.68,0.2
					C446,485.97,445.75,486.03,445.32,486.15z"/>
			</g>
		</g>
		<g>
			<g>
				
					<ellipse transform="matrix(0.9626 -0.2708 0.2708 0.9626 -110.9635 137.1037)" class="st0" cx="441.28" cy="470.6" rx="5.83" ry="8.7"/>
				<path class="st0" d="M443.69,479.16c-3.19,0.9-6.87-2.21-8.2-6.93s0.19-9.29,3.38-10.18c3.19-0.9,6.87,2.21,8.2,6.93
					S446.88,478.26,443.69,479.16z M438.98,462.41c-3,0.84-4.4,5.21-3.13,9.73s4.74,7.51,7.74,6.67c3-0.84,4.4-5.21,3.13-9.73
					S441.97,461.56,438.98,462.41z"/>
			</g>
		</g>
		<g>
			<g>
				<polyline class="st0" points="437.73,463.51 437.53,457.28 440.45,462.74 				"/>
				<polygon class="st0" points="437.92,463.5 437.54,463.51 437.32,456.49 440.62,462.65 440.29,462.83 437.74,458.06 				"/>
			</g>
		</g>
		<g>
			<g>
				
					<ellipse transform="matrix(0.826 -0.5637 0.5637 0.826 -197.2973 324.5417)" class="st0" cx="427.02" cy="481.84" rx="4.84" ry="8.56"/>
				<path class="st0" d="M431.06,489.47c-2.39,0.67-5.83-1.35-8.19-4.8c-2.72-3.98-3.07-8.49-0.78-10.05
					c0.27-0.18,0.57-0.32,0.89-0.41c2.39-0.67,5.83,1.35,8.19,4.8c2.72,3.98,3.07,8.49,0.78,10.05
					C431.68,489.25,431.38,489.38,431.06,489.47z M423.08,474.56c-0.28,0.08-0.55,0.2-0.78,0.36c-2.12,1.45-1.72,5.72,0.88,9.54
					c2.27,3.33,5.54,5.28,7.78,4.66c0.28-0.08,0.55-0.2,0.78-0.36c2.12-1.45,1.72-5.72-0.88-9.54
					C428.59,475.89,425.32,473.93,423.08,474.56z"/>
			</g>
		</g>
		<g>
			<g>
				<path class="st0" d="M421.86,478c0,0-2.2-6.31-1.34-7.18c0,0,2.87,6.56,3.57,6.3"/>
				<path class="st0" d="M421.68,478.06c-0.37-1.07-2.19-6.47-1.3-7.37l0.19-0.2l0.11,0.25c1.27,2.91,2.92,6.11,3.36,6.2l0.1,0.35
					c-0.01,0-0.01,0-0.02,0c-0.69,0.19-2.31-3.07-3.61-6.02c-0.18,1.16,0.78,4.54,1.52,6.66L421.68,478.06z"/>
			</g>
		</g>
		<g>
			<g>
				<path class="st0" d="M427.55,496.75c2.24,3,2.44,6.45,0.45,7.7c-1.99,1.25-5.42-0.17-7.65-3.17c-2.24-3-2.44-6.45-0.45-7.7
					C421.89,492.33,425.32,493.75,427.55,496.75z"/>
				<path class="st0" d="M427.31,504.96c-2.13,0.6-5.12-0.9-7.1-3.57c-1.43-1.92-2.1-4.1-1.78-5.81c0.18-0.95,0.66-1.7,1.38-2.15
					c0.24-0.15,0.51-0.27,0.8-0.35c2.13-0.6,5.12,0.9,7.1,3.57c1.43,1.92,2.1,4.1,1.78,5.82c-0.18,0.95-0.65,1.7-1.38,2.15
					C427.86,504.76,427.59,504.88,427.31,504.96z M420.7,493.43c-0.25,0.07-0.49,0.17-0.7,0.31c-0.63,0.4-1.05,1.06-1.21,1.91
					c-0.3,1.62,0.34,3.68,1.71,5.52c1.9,2.55,4.72,3.99,6.71,3.43c0.25-0.07,0.49-0.17,0.7-0.31c0.63-0.4,1.05-1.06,1.21-1.91
					c0.3-1.62-0.34-3.68-1.71-5.52C425.51,494.31,422.69,492.87,420.7,493.43z"/>
			</g>
		</g>
		<g>
			<g>
				<path class="st0" d="M419.51,496.13c0,0-1.76-4.91-0.98-5.62c0,0,2.34,5.09,2.97,4.87"/>
				<path class="st0" d="M419.33,496.19c-0.3-0.84-1.76-5.07-0.93-5.83l0.19-0.17l0.11,0.23c1.03,2.24,2.38,4.69,2.76,4.77l0.1,0.35
					c0,0-0.01,0-0.01,0c-0.62,0.18-1.95-2.32-3.01-4.61c-0.14,0.92,0.54,3.4,1.16,5.12L419.33,496.19z"/>
			</g>
		</g>
		<g>
			<g>
				<path class="st0" d="M454.86,472.4c-0.2,4.71,1.75,8.65,4.36,8.8s4.89-3.55,5.1-8.26c0.2-4.71-1.75-8.65-4.36-8.8
					C457.35,464,455.07,467.69,454.86,472.4z"/>
				<path class="st0" d="M460.17,481.28L460.17,481.28c-0.32,0.09-0.64,0.12-0.96,0.11c-2.71-0.16-4.74-4.19-4.53-8.99
					c0.18-4.17,2-7.67,4.34-8.33c0.31-0.09,0.64-0.12,0.96-0.11c2.71,0.16,4.74,4.19,4.54,9
					C464.32,477.13,462.5,480.63,460.17,481.28z M459.11,464.43c-2.18,0.61-3.89,3.97-4.07,7.99c-0.2,4.6,1.68,8.46,4.18,8.61
					c0.28,0.02,0.56-0.02,0.83-0.09c2.18-0.61,3.89-3.97,4.07-7.99c0.2-4.6-1.68-8.46-4.18-8.61
					C459.67,464.32,459.39,464.35,459.11,464.43z"/>
			</g>
		</g>
		<g>
			<g>
				<path class="st0" d="M461.9,466.73c0,0-1.42-6.53-2.58-6.83c0,0,0.99,7.08,0.28,7.23"/>
				<path class="st0" d="M462.09,466.69l-0.36,0.08c-0.48-2.18-1.42-5.55-2.16-6.46c0.44,3.22,0.77,6.88,0.07,7l-0.07-0.36
					c0.29-0.3,0.02-3.81-0.43-7.02l-0.04-0.28l0.27,0.07C460.58,460.03,461.84,465.58,462.09,466.69z"/>
			</g>
		</g>
		<g>
			<g>
				<path class="st0" d="M467.43,485.53c-0.23,3.7,1.33,6.76,3.49,6.84c2.15,0.08,4.09-2.84,4.32-6.54c0.23-3.7-1.33-6.76-3.49-6.84
					C469.59,478.91,467.66,481.84,467.43,485.53z"/>
				<path class="st0" d="M471.71,492.47L471.71,492.47c-0.26,0.07-0.53,0.11-0.8,0.1c-0.74-0.03-1.45-0.39-2.04-1.04
					c-1.16-1.28-1.78-3.58-1.63-6c0.2-3.29,1.77-6.07,3.71-6.62c0.26-0.07,0.53-0.11,0.8-0.1c0.74,0.03,1.45,0.39,2.04,1.04
					c1.16,1.28,1.78,3.58,1.63,6C475.22,489.13,473.66,491.92,471.71,492.47z M471.06,479.26c-1.8,0.51-3.25,3.15-3.44,6.28
					c-0.14,2.33,0.44,4.52,1.54,5.73c0.52,0.58,1.14,0.9,1.77,0.92c0.23,0.01,0.46-0.02,0.68-0.08c1.8-0.51,3.25-3.15,3.44-6.28
					c0.14-2.33-0.44-4.52-1.53-5.73c-0.52-0.58-1.14-0.9-1.77-0.92C471.51,479.17,471.29,479.2,471.06,479.26z"/>
			</g>
		</g>
		<g>
			<g>
				<path class="st0" d="M473.32,480.99c0,0-1.09-5.1-2.05-5.33c0,0,0.73,5.54,0.14,5.66"/>
				<path class="st0" d="M473.5,480.95l-0.36,0.08c-0.38-1.75-1.07-4.15-1.62-4.93c0.44,3.46,0.42,5.28-0.05,5.41
					c-0.01,0-0.01,0-0.02,0l-0.07-0.36c0.22-0.26,0.03-3.04-0.29-5.46l-0.04-0.27l0.26,0.06
					C472.34,475.72,473.32,480.08,473.5,480.95z"/>
			</g>
		</g>
	</g>
	<g>
		<g>
			<g>
				<path class="st0" d="M369.77,623.36c1.65,0.18-3.16,2.9,9.08,4.86c12.24,1.97,13.96-16.13,9.68-19.75
					c-4.29-3.62-1.29-4.28-3.87-8.98c-2.58-4.69-11.72-5.24-11.72-5.24s-9.05-1.44-12.59,2.59c-3.54,4.03-0.75,5.32-5.72,7.93
					c-4.97,2.61-7.19,20.65,5.21,21.37C372.23,626.87,368.11,623.18,369.77,623.36z"/>
				<path class="st0" d="M359.2,626.28C359.2,626.28,359.2,626.28,359.2,626.28c-6.09-0.67-7.9-5.51-8.44-8.33
					c-1.01-5.31,0.83-11.79,3.78-13.33c2.77-1.46,3.06-2.45,3.46-3.83c0.3-1.03,0.67-2.3,2.21-4.06c3.02-3.43,9.98-2.97,12.04-2.74
					c0.44,0.05,0.7,0.09,0.72,0.09c0,0,0.26,0.02,0.7,0.06c2.06,0.22,8.95,1.27,11.15,5.27c1.13,2.05,1.21,3.38,1.28,4.44
					c0.09,1.43,0.16,2.47,2.55,4.48c2.54,2.15,2.94,8.88,0.81,13.85c-1.17,2.73-4.14,7.25-10.64,6.22c-9.13-1.47-8.95-3.4-8.85-4.44
					c0.04-0.37,0.03-0.4-0.22-0.43c-0.26-0.03-0.26,0-0.31,0.37c-0.13,1.03-0.37,2.96-9.61,2.42
					C359.61,626.32,359.4,626.3,359.2,626.28z M372.21,594.35c-2.02-0.22-8.82-0.68-11.72,2.62c-1.49,1.69-1.83,2.88-2.13,3.92
					c-0.41,1.41-0.73,2.53-3.64,4.05c-2.82,1.48-4.57,7.77-3.59,12.94c0.52,2.73,2.26,7.39,8.11,8.03c0,0,0,0,0,0
					c0.2,0.02,0.4,0.04,0.61,0.05c8.9,0.52,9.12-1.25,9.22-2.1c0.04-0.34,0.09-0.76,0.72-0.69c0.63,0.07,0.59,0.49,0.55,0.83
					c-0.08,0.85-0.25,2.62,8.54,4.03c0.2,0.03,0.41,0.06,0.6,0.08c5.84,0.64,8.54-3.54,9.63-6.09c2.07-4.84,1.73-11.36-0.71-13.42
					c-2.51-2.12-2.59-3.28-2.68-4.74c-0.07-1.08-0.15-2.31-1.23-4.29c-2.11-3.84-8.85-4.86-10.86-5.08c-0.44-0.05-0.7-0.06-0.7-0.06
					C372.91,594.44,372.65,594.4,372.21,594.35z"/>
			</g>
		</g>
		<g>
			<g>
				
					<ellipse transform="matrix(0.1084 -0.9941 0.9941 0.1084 -241.3041 887.7991)" class="st0" cx="374.28" cy="578.42" rx="8.7" ry="5.83"/>
				<path class="st0" d="M373.31,587.26c-3.3-0.36-5.55-4.62-5.02-9.49s3.65-8.54,6.94-8.18c3.3,0.36,5.55,4.62,5.02,9.49
					S376.61,587.62,373.31,587.26z M375.2,569.96c-3.09-0.34-6.02,3.19-6.53,7.85c-0.51,4.67,1.59,8.74,4.69,9.08
					s6.02-3.19,6.53-7.85C380.4,574.37,378.29,570.29,375.2,569.96z"/>
			</g>
		</g>
		<g>
			<g>
				<polyline class="st0" points="373.63,570.51 375.78,564.66 376.45,570.82 				"/>
				<polygon class="st0" points="373.81,570.58 373.46,570.45 375.88,563.85 376.63,570.8 376.26,570.84 375.68,565.47 				"/>
			</g>
		</g>
		<g>
			<g>
				
					<ellipse transform="matrix(0.9768 -0.2143 0.2143 0.9768 -116.7509 90.0235)" class="st0" cx="356.85" cy="583.52" rx="4.84" ry="8.56"/>
				<path class="st0" d="M357.74,592.11c-2.46-0.27-4.9-3.43-5.8-7.51c-1.03-4.71,0.33-9.02,3.03-9.62
					c0.32-0.07,0.65-0.09,0.98-0.05c2.46,0.27,4.9,3.43,5.8,7.51c1.03,4.71-0.33,9.02-3.03,9.62
					C358.41,592.13,358.08,592.14,357.74,592.11z M355.92,575.3c-0.29-0.03-0.58-0.02-0.86,0.04c-2.5,0.55-3.74,4.66-2.75,9.17
					c0.86,3.93,3.17,6.97,5.48,7.22c0.29,0.03,0.58,0.02,0.86-0.04c2.5-0.55,3.74-4.66,2.75-9.17
					C360.53,578.59,358.23,575.55,355.92,575.3z"/>
			</g>
		</g>
		<g>
			<g>
				<path class="st0" d="M353.5,578.02c0,0,0.32-6.67,1.44-7.17c0,0,0.21,7.15,0.95,7.18"/>
				<path class="st0" d="M353.31,578.01c0.05-1.13,0.38-6.82,1.55-7.33l0.25-0.11l0.01,0.28c0.09,3.18,0.43,6.76,0.8,7l-0.04,0.37
					c-0.01,0-0.01,0-0.02,0c-0.72-0.08-1-3.71-1.1-6.93c-0.59,1.01-0.97,4.5-1.08,6.74L353.31,578.01z"/>
			</g>
		</g>
		<g>
			<g>
				<path class="st0" d="M351.77,597.55c0.95,3.62-0.15,6.89-2.46,7.31c-2.31,0.42-4.96-2.18-5.92-5.8
					c-0.95-3.62,0.15-6.89,2.46-7.31C348.17,591.33,350.82,593.93,351.77,597.55z"/>
				<path class="st0" d="M348.48,605.07c-2.2-0.24-4.41-2.75-5.26-5.96c-0.61-2.32-0.42-4.58,0.52-6.06
					c0.52-0.82,1.24-1.33,2.08-1.48c0.28-0.05,0.57-0.06,0.87-0.03c2.2,0.24,4.41,2.75,5.26,5.96c0.61,2.32,0.42,4.58-0.52,6.06
					c-0.52,0.82-1.24,1.33-2.08,1.48C349.07,605.09,348.77,605.1,348.48,605.07z M346.66,591.91c-0.26-0.03-0.52-0.02-0.76,0.02
					c-0.74,0.13-1.37,0.59-1.84,1.32c-0.88,1.39-1.06,3.54-0.48,5.76c0.81,3.07,2.89,5.47,4.94,5.69c0.26,0.03,0.52,0.02,0.76-0.03
					c0.74-0.13,1.37-0.59,1.83-1.31c0.88-1.39,1.06-3.54,0.48-5.76C350.78,594.52,348.71,592.13,346.66,591.91z"/>
			</g>
		</g>
		<g>
			<g>
				<path class="st0" d="M344.54,593.97c0,0,0.2-5.21,1.19-5.58c0,0,0.27,5.59,0.93,5.62"/>
				<path class="st0" d="M344.36,593.96c0.04-0.89,0.26-5.36,1.31-5.75l0.24-0.09l0.01,0.25c0.12,2.46,0.45,5.24,0.78,5.45
					l-0.04,0.37c-0.01,0-0.01,0-0.01,0c-0.64-0.07-0.94-2.88-1.08-5.4c-0.47,0.8-0.77,3.35-0.84,5.18L344.36,593.96z"/>
			</g>
		</g>
		<g>
			<g>
				<path class="st0" d="M386.2,585.16c-1.95,4.29-1.61,8.68,0.75,9.79s5.86-1.46,7.81-5.75c1.95-4.29,1.61-8.68-0.76-9.79
					C391.65,578.3,388.15,580.87,386.2,585.16z"/>
				<path class="st0" d="M387.8,595.38L387.8,595.38c-0.33-0.04-0.64-0.12-0.93-0.26c-2.45-1.16-2.83-5.66-0.84-10.04
					c1.72-3.8,4.73-6.37,7.13-6.11c0.32,0.04,0.64,0.12,0.93,0.26c2.45,1.16,2.83,5.66,0.85,10.04
					C393.21,593.08,390.21,595.65,387.8,595.38z M393.13,579.35c-2.25-0.25-5.09,2.23-6.76,5.89c-1.9,4.19-1.61,8.48,0.66,9.55
					c0.25,0.12,0.52,0.19,0.81,0.23c2.25,0.25,5.09-2.23,6.76-5.89c1.9-4.19,1.61-8.48-0.67-9.55
					C393.68,579.46,393.41,579.38,393.13,579.35z"/>
			</g>
		</g>
		<g>
			<g>
				<path class="st0" d="M394.85,582.53c0,0,1.12-6.59,0.16-7.3c0,0-1.72,6.94-2.44,6.81"/>
				<path class="st0" d="M395.04,582.56l-0.37-0.06c0.37-2.2,0.76-5.67,0.41-6.8c-0.8,3.15-1.85,6.67-2.55,6.52l0.07-0.37
					c0.39-0.17,1.44-3.53,2.22-6.67l0.07-0.27l0.22,0.17C396.12,575.82,395.23,581.44,395.04,582.56z"/>
			</g>
		</g>
		<g>
			<g>
				<path class="st0" d="M392.96,602.04c-1.59,3.34-1.29,6.77,0.68,7.65c1.97,0.88,4.85-1.11,6.45-4.45
					c1.59-3.34,1.29-6.77-0.68-7.65C397.44,596.7,394.55,598.7,392.96,602.04z"/>
				<path class="st0" d="M394.34,610.07L394.34,610.07c-0.27-0.03-0.53-0.1-0.78-0.21c-0.68-0.3-1.2-0.9-1.5-1.73
					c-0.59-1.62-0.32-3.98,0.73-6.17c1.42-2.97,3.9-4.97,5.92-4.75c0.27,0.03,0.53,0.1,0.78,0.21c0.68,0.3,1.2,0.9,1.5,1.73
					c0.59,1.62,0.32,3.98-0.73,6.17C398.83,608.29,396.35,610.29,394.34,610.07z M398.66,597.58c-1.86-0.2-4.19,1.71-5.54,4.54
					c-1,2.1-1.28,4.36-0.72,5.89c0.27,0.73,0.72,1.26,1.3,1.52c0.21,0.09,0.43,0.15,0.66,0.18c1.86,0.2,4.19-1.71,5.54-4.54
					c1-2.1,1.28-4.36,0.72-5.89c-0.27-0.73-0.72-1.26-1.3-1.52C399.12,597.66,398.9,597.6,398.66,597.58z"/>
			</g>
		</g>
		<g>
			<g>
				<path class="st0" d="M400.12,600.03c0,0,0.89-5.14,0.09-5.7c0,0-1.39,5.41-1.99,5.3"/>
				<path class="st0" d="M400.3,600.06l-0.37-0.06c0.31-1.77,0.56-4.25,0.34-5.18c-0.89,3.37-1.58,5.05-2.07,5
					c-0.01,0-0.01,0-0.02,0l0.07-0.37c0.3-0.16,1.16-2.81,1.77-5.17l0.07-0.26l0.22,0.15C401.17,594.77,400.45,599.18,400.3,600.06z
					"/>
			</g>
		</g>
	</g>
	<g>
		<g>
			<g>
				<path class="st0" d="M447.95,728.33c1.58,0.51-3.68,2.21,7.93,6.58c11.6,4.38,16.91-13.01,13.43-17.41
					c-3.48-4.4-0.41-4.45-2-9.57c-1.59-5.12-10.43-7.48-10.43-7.48s-8.58-3.22-12.86,0.02c-4.27,3.24-1.8,5.06-7.19,6.63
					c-5.39,1.56-11.18,18.79,0.82,21.98C449.66,732.26,446.36,727.82,447.95,728.33z"/>
				<path class="st0" d="M437.01,729.08C437.01,729.08,437.01,729.08,437.01,729.08c-5.84-1.87-6.64-6.98-6.6-9.85
					c0.08-5.4,3.17-11.38,6.37-12.31c3.01-0.87,3.49-1.79,4.15-3.06c0.5-0.95,1.11-2.12,2.98-3.54c3.64-2.76,10.37-0.91,12.35-0.28
					c0.42,0.14,0.67,0.23,0.69,0.23c0,0,0.26,0.07,0.68,0.2c1.97,0.63,8.51,3.03,9.87,7.39c0.69,2.23,0.51,3.55,0.36,4.61
					c-0.2,1.42-0.34,2.45,1.6,4.9c2.06,2.61,1.1,9.29-1.98,13.73c-1.69,2.44-5.51,6.28-11.67,3.97c-8.65-3.26-8.09-5.12-7.78-6.12
					c0.11-0.36,0.11-0.38-0.13-0.46c-0.25-0.08-0.26-0.05-0.38,0.3c-0.33,0.99-0.95,2.83-9.9,0.45
					C437.4,729.2,437.21,729.14,437.01,729.08z M456.15,700.4c-1.93-0.62-8.51-2.43-12.01,0.22c-1.8,1.36-2.37,2.45-2.87,3.41
					c-0.68,1.3-1.22,2.33-4.38,3.24c-3.06,0.89-6.03,6.7-6.1,11.96c-0.04,2.77,0.73,7.7,6.34,9.49c0,0,0,0,0,0
					c0.19,0.06,0.38,0.12,0.58,0.17c8.61,2.29,9.18,0.6,9.46-0.21c0.11-0.32,0.24-0.73,0.84-0.53c0.6,0.19,0.48,0.6,0.37,0.92
					c-0.25,0.82-0.77,2.52,7.56,5.66c0.19,0.07,0.38,0.14,0.57,0.2c5.59,1.79,9.08-1.76,10.65-4.03c3-4.33,3.97-10.78,1.99-13.29
					c-2.04-2.58-1.88-3.73-1.68-5.18c0.15-1.08,0.32-2.29-0.35-4.45c-1.3-4.19-7.7-6.53-9.62-7.15c-0.42-0.14-0.67-0.2-0.68-0.2
					C456.82,700.62,456.57,700.53,456.15,700.4z"/>
			</g>
		</g>
		<g>
			<g>
				
					<ellipse transform="matrix(0.3052 -0.9523 0.9523 0.3052 -331.9439 915.4645)" class="st0" cx="461.36" cy="685.2" rx="8.7" ry="5.83"/>
				<path class="st0" d="M458.65,693.66c-3.16-1.01-4.51-5.63-3.02-10.3c1.5-4.67,5.28-7.64,8.44-6.63
					c3.16,1.01,4.51,5.63,3.02,10.3C465.59,691.7,461.81,694.68,458.65,693.66z M463.96,677.09c-2.96-0.95-6.54,1.92-7.97,6.39
					c-1.43,4.47-0.19,8.88,2.77,9.83c2.96,0.95,6.54-1.92,7.97-6.39C468.17,682.45,466.92,678.04,463.96,677.09z"/>
			</g>
		</g>
		<g>
			<g>
				<polyline class="st0" points="462.31,677.32 465.59,672.02 465.01,678.19 				"/>
				<polygon class="st0" points="462.47,677.42 462.15,677.22 465.84,671.24 465.19,678.2 464.82,678.17 465.33,672.79 				"/>
			</g>
		</g>
		<g>
			<g>
				
					<ellipse transform="matrix(0.9999 -0.0145 0.0145 0.9999 -9.8867 6.4837)" class="st0" cx="443.27" cy="686.7" rx="4.84" ry="8.56"/>
				<path class="st0" d="M442.42,695.3c-2.36-0.76-4.12-4.34-4.18-8.52c-0.07-4.82,2.13-8.77,4.9-8.81c0.33,0,0.65,0.04,0.97,0.15
					c2.36,0.76,4.12,4.34,4.18,8.52c0.07,4.82-2.13,8.77-4.9,8.81C443.07,695.45,442.74,695.4,442.42,695.3z M444,678.46
					c-0.28-0.09-0.57-0.13-0.85-0.13c-2.56,0.04-4.6,3.82-4.53,8.44c0.06,4.03,1.71,7.46,3.92,8.17c0.28,0.09,0.57,0.13,0.85,0.13
					c2.56-0.04,4.6-3.82,4.53-8.44C447.86,682.61,446.21,679.17,444,678.46z"/>
			</g>
		</g>
		<g>
			<g>
				<path class="st0" d="M441.08,680.65c0,0,1.65-6.48,2.84-6.73c0,0-1.23,7.05-0.5,7.22"/>
				<path class="st0" d="M440.9,680.6c0.28-1.1,1.74-6.6,2.98-6.87l0.27-0.06l-0.05,0.27c-0.54,3.13-0.94,6.7-0.62,7.02l-0.11,0.35
					c0,0-0.01,0-0.02-0.01c-0.69-0.22-0.23-3.83,0.31-7.01c-0.78,0.87-1.85,4.22-2.41,6.39L440.9,680.6z"/>
			</g>
		</g>
		<g>
			<g>
				<path class="st0" d="M435.49,699.44c0.21,3.74-1.52,6.72-3.87,6.67c-2.35-0.05-4.42-3.13-4.63-6.87
					c-0.21-3.74,1.52-6.72,3.87-6.67C433.2,692.62,435.27,695.7,435.49,699.44z"/>
				<path class="st0" d="M430.75,706.15c-2.11-0.67-3.77-3.57-3.96-6.9c-0.13-2.4,0.51-4.58,1.72-5.83c0.68-0.7,1.48-1.06,2.34-1.04
					c0.29,0.01,0.58,0.06,0.86,0.15c2.11,0.67,3.77,3.57,3.96,6.9c0.13,2.4-0.51,4.58-1.72,5.83c-0.67,0.7-1.48,1.05-2.34,1.04
					C431.32,706.28,431.03,706.24,430.75,706.15z M431.6,692.88c-0.25-0.08-0.5-0.12-0.75-0.13c-0.75-0.02-1.46,0.3-2.06,0.92
					c-1.14,1.18-1.75,3.26-1.62,5.55c0.18,3.17,1.73,5.93,3.7,6.56c0.25,0.08,0.5,0.12,0.75,0.13c0.75,0.02,1.46-0.3,2.06-0.92
					c1.14-1.18,1.75-3.26,1.62-5.55C435.12,696.27,433.56,693.51,431.6,692.88z"/>
			</g>
		</g>
		<g>
			<g>
				<path class="st0" d="M429.12,694.48c0,0,1.24-5.07,2.29-5.23c0,0-0.85,5.54-0.21,5.7"/>
				<path class="st0" d="M428.94,694.44c0.21-0.87,1.33-5.2,2.44-5.37l0.25-0.04l-0.04,0.25c-0.38,2.43-0.61,5.23-0.33,5.5
					l-0.11,0.35c-0.01,0-0.01,0-0.01,0c-0.62-0.2-0.34-3.01,0.03-5.5c-0.62,0.69-1.42,3.13-1.86,4.91L428.94,694.44z"/>
			</g>
		</g>
		<g>
			<g>
				<path class="st0" d="M471.69,694.19c-2.77,3.82-3.32,8.18-1.22,9.75c2.1,1.57,6.04-0.26,8.81-4.07
					c2.77-3.82,3.31-8.18,1.22-9.75C478.4,688.55,474.46,690.38,471.69,694.19z"/>
				<path class="st0" d="M471.22,704.53L471.22,704.53c-0.31-0.1-0.6-0.25-0.86-0.44c-2.17-1.62-1.64-6.11,1.18-10
					c2.45-3.38,5.9-5.29,8.21-4.55c0.31,0.1,0.6,0.25,0.85,0.44c2.17,1.62,1.64,6.11-1.18,10
					C476.98,703.35,473.53,705.27,471.22,704.53z M479.64,689.88c-2.16-0.69-5.44,1.17-7.8,4.42c-2.71,3.73-3.27,7.98-1.26,9.49
					c0.22,0.17,0.47,0.3,0.75,0.38c2.16,0.69,5.44-1.17,7.8-4.42c2.71-3.73,3.27-7.98,1.26-9.49
					C480.16,690.1,479.91,689.97,479.64,689.88z"/>
			</g>
		</g>
		<g>
			<g>
				<path class="st0" d="M480.7,693.34c0,0,2.41-6.23,1.62-7.13c0,0-3.08,6.46-3.75,6.18"/>
				<path class="st0" d="M480.87,693.41l-0.35-0.13c0.81-2.08,1.88-5.41,1.77-6.58c-1.41,2.92-3.15,6.16-3.8,5.88l0.14-0.34
					c0.41-0.09,2.12-3.17,3.51-6.09l0.12-0.25l0.19,0.21C483.28,687.03,481.28,692.35,480.87,693.41z"/>
			</g>
		</g>
		<g>
			<g>
				<path class="st0" d="M474.94,712.08c-2.23,2.96-2.62,6.37-0.87,7.63c1.75,1.26,4.98-0.12,7.21-3.07
					c2.23-2.96,2.62-6.37,0.87-7.63C480.39,707.75,477.16,709.12,474.94,712.08z"/>
				<path class="st0" d="M474.68,720.22L474.68,720.22c-0.26-0.08-0.5-0.21-0.72-0.36c-0.6-0.43-0.99-1.12-1.12-1.99
					c-0.26-1.7,0.49-3.97,1.95-5.9c1.98-2.63,4.82-4.09,6.75-3.47c0.26,0.08,0.5,0.21,0.72,0.36c0.6,0.43,0.99,1.12,1.12,1.99
					c0.26,1.7-0.49,3.97-1.95,5.9C479.44,719.38,476.61,720.84,474.68,720.22z M481.42,708.85c-1.78-0.57-4.45,0.83-6.34,3.34
					c-1.4,1.86-2.12,4.02-1.88,5.62c0.12,0.77,0.45,1.37,0.97,1.75c0.18,0.13,0.39,0.24,0.61,0.31c1.78,0.57,4.45-0.84,6.34-3.34
					c1.4-1.86,2.12-4.01,1.88-5.62c-0.12-0.77-0.45-1.37-0.97-1.75C481.85,709.02,481.64,708.92,481.42,708.85z"/>
			</g>
		</g>
		<g>
			<g>
				<path class="st0" d="M482.35,711.54c0,0,1.9-4.86,1.23-5.57c0,0-2.45,5.03-3.01,4.8"/>
				<path class="st0" d="M482.53,711.61l-0.35-0.14c0.65-1.67,1.4-4.05,1.37-5.01c-1.54,3.13-2.56,4.63-3.03,4.48
					c0,0-0.01,0-0.01-0.01l0.14-0.34c0.33-0.1,1.7-2.52,2.77-4.71l0.12-0.24l0.18,0.2C484.44,706.6,482.85,710.78,482.53,711.61z"/>
			</g>
		</g>
	</g>
	<g>
		<g>
			<g>
				<path class="st0" d="M340.95,811.88c1.4,0.89-4.12,1.2,5.99,8.38c10.11,7.18,19.66-8.28,17.42-13.42
					c-2.24-5.14,0.74-4.41,0.51-9.76c-0.24-5.35-8.19-9.89-8.19-9.89s-7.48-5.3-12.44-3.26c-4.96,2.04-3.03,4.44-8.64,4.58
					c-5.61,0.14-15.59,15.33-4.8,21.47C341.6,816.12,339.55,810.99,340.95,811.88z"/>
				<path class="st0" d="M330.18,809.82C330.18,809.82,330.18,809.82,330.18,809.82c-5.17-3.29-4.64-8.44-3.87-11.21
					c1.45-5.2,5.97-10.2,9.29-10.28c3.13-0.08,3.83-0.84,4.8-1.9c0.72-0.79,1.62-1.77,3.78-2.66c4.22-1.74,10.26,1.76,12.01,2.87
					c0.37,0.24,0.59,0.39,0.6,0.4c0,0,0.23,0.13,0.6,0.37c1.75,1.11,7.46,5.1,7.66,9.66c0.1,2.34-0.41,3.56-0.82,4.55
					c-0.55,1.32-0.95,2.28,0.3,5.15c1.33,3.05-1.3,9.26-5.41,12.77c-2.26,1.93-6.93,4.67-12.29,0.87c-7.54-5.36-6.52-7.01-5.97-7.9
					c0.2-0.32,0.2-0.34-0.01-0.48c-0.22-0.14-0.24-0.12-0.44,0.19c-0.57,0.87-1.64,2.49-9.69-2.09
					C330.53,810.04,330.35,809.93,330.18,809.82z M355.99,786.96c-1.71-1.09-7.61-4.52-11.67-2.84c-2.09,0.86-2.91,1.77-3.65,2.57
					c-0.99,1.08-1.77,1.94-5.06,2.02c-3.19,0.08-7.53,4.94-8.94,10.01c-0.74,2.67-1.25,7.63,3.71,10.79c0,0,0,0,0,0
					c0.17,0.11,0.34,0.21,0.52,0.31c7.75,4.41,8.73,2.92,9.2,2.2c0.19-0.29,0.42-0.64,0.95-0.3c0.53,0.34,0.31,0.7,0.13,0.99
					c-0.45,0.73-1.38,2.24,5.87,7.4c0.17,0.12,0.34,0.23,0.5,0.34c4.95,3.16,9.22,0.61,11.33-1.19c4-3.42,6.58-9.42,5.31-12.34
					c-1.31-3.01-0.87-4.08-0.3-5.44c0.42-1,0.89-2.14,0.79-4.39c-0.19-4.38-5.78-8.28-7.49-9.36c-0.38-0.24-0.6-0.37-0.6-0.37
					C356.57,787.35,356.36,787.2,355.99,786.96z"/>
			</g>
		</g>
		<g>
			<g>
				
					<ellipse transform="matrix(0.5374 -0.8433 0.8433 0.5374 -483.5838 665.5438)" class="st0" cx="364.89" cy="773.59" rx="8.7" ry="5.83"/>
				<path class="st0" d="M360.12,781.08c-2.8-1.78-2.93-6.59-0.3-10.73s7.05-6.04,9.85-4.26s2.93,6.59,0.3,10.73
					C367.33,780.96,362.92,782.87,360.12,781.08z M369.47,766.41c-2.62-1.67-6.81,0.19-9.33,4.15c-2.52,3.96-2.44,8.54,0.18,10.21
					c2.62,1.67,6.81-0.19,9.33-4.15C372.18,772.66,372.1,768.08,369.47,766.41z"/>
			</g>
		</g>
		<g>
			<g>
				<polyline class="st0" points="367.82,766.21 372.34,761.91 370.21,767.73 				"/>
				<polygon class="st0" points="367.95,766.35 367.69,766.08 372.78,761.23 370.38,767.8 370.03,767.67 371.89,762.6 				"/>
			</g>
		</g>
		<g>
			<g>
				
					<ellipse transform="matrix(0.2405 -0.9707 0.9707 0.2405 -484.2636 922.0138)" class="st0" cx="347.01" cy="770.44" rx="8.56" ry="4.84"/>
				<path class="st0" d="M344.01,778.54c-2.09-1.33-2.88-5.25-1.87-9.31c1.16-4.68,4.29-7.94,6.98-7.28
					c0.32,0.08,0.62,0.21,0.9,0.39c2.09,1.33,2.88,5.25,1.87,9.31c-1.16,4.68-4.29,7.94-6.98,7.28
					C344.6,778.85,344.29,778.72,344.01,778.54z M349.82,762.66c-0.25-0.16-0.51-0.27-0.79-0.34c-2.49-0.62-5.42,2.53-6.53,7.01
					c-0.97,3.91-0.25,7.65,1.71,8.9c0.25,0.16,0.51,0.27,0.79,0.34c2.49,0.62,5.42-2.53,6.53-7.01
					C352.5,767.65,351.78,763.91,349.82,762.66z"/>
			</g>
		</g>
		<g>
			<g>
				<path class="st0" d="M346.44,764.03c0,0,3.24-5.84,4.46-5.79c0,0-2.98,6.51-2.32,6.86"/>
				<path class="st0" d="M346.28,763.94c0.55-0.99,3.36-5.94,4.63-5.88l0.28,0.01l-0.11,0.25c-1.32,2.89-2.61,6.25-2.38,6.63
					l-0.2,0.31c0,0-0.01-0.01-0.01-0.01c-0.61-0.39,0.75-3.77,2.08-6.7c-0.98,0.64-2.87,3.61-3.95,5.57L346.28,763.94z"/>
			</g>
		</g>
		<g>
			<g>
				<path class="st0" d="M336.25,780.77c-0.75,3.67-3.18,6.12-5.44,5.46c-2.26-0.65-3.48-4.15-2.73-7.82s3.18-6.12,5.44-5.47
					C335.77,773.6,337,777.1,336.25,780.77z"/>
				<path class="st0" d="M329.96,786.06c-1.86-1.19-2.74-4.42-2.07-7.68c0.48-2.35,1.66-4.3,3.15-5.2c0.83-0.5,1.7-0.64,2.52-0.41
					c0.28,0.08,0.54,0.2,0.79,0.36c1.86,1.19,2.74,4.42,2.07,7.68c-0.48,2.35-1.66,4.3-3.15,5.2c-0.83,0.5-1.7,0.64-2.52,0.41
					C330.48,786.34,330.21,786.22,329.96,786.06z M334.16,773.45c-0.22-0.14-0.45-0.25-0.7-0.32c-0.72-0.21-1.49-0.08-2.23,0.37
					c-1.41,0.85-2.52,2.7-2.98,4.96c-0.63,3.11,0.17,6.18,1.91,7.29c0.22,0.14,0.46,0.25,0.7,0.32c0.72,0.21,1.49,0.08,2.23-0.37
					c1.41-0.85,2.52-2.71,2.98-4.96C336.7,777.62,335.9,774.56,334.16,773.45z"/>
			</g>
		</g>
		<g>
			<g>
				<path class="st0" d="M331.35,774.36c0,0,2.49-4.58,3.54-4.48c0,0-2.23,5.14-1.65,5.45"/>
				<path class="st0" d="M331.19,774.27c0.43-0.78,2.61-4.69,3.72-4.57l0.25,0.03l-0.1,0.23c-0.98,2.26-1.92,4.9-1.72,5.23
					l-0.2,0.31c0,0-0.01,0-0.01-0.01c-0.55-0.35,0.43-3,1.43-5.32c-0.77,0.51-2.17,2.66-3.05,4.27L331.19,774.27z"/>
			</g>
		</g>
		<g>
			<g>
				<path class="st0" d="M372.6,784.92c-3.65,2.99-5.29,7.07-3.66,9.11c1.63,2.05,5.91,1.29,9.55-1.7c3.65-2.99,5.29-7.07,3.66-9.11
					C380.52,781.17,376.25,781.93,372.6,784.92z"/>
				<path class="st0" d="M369.51,794.79L369.51,794.79c-0.28-0.18-0.52-0.39-0.72-0.64c-1.69-2.12-0.03-6.33,3.69-9.37
					c3.23-2.64,7.06-3.62,9.1-2.31c0.28,0.18,0.52,0.39,0.72,0.64c1.69,2.12,0.03,6.33-3.69,9.37
					C375.38,795.12,371.55,796.09,369.51,794.79z M381.38,782.77c-1.91-1.22-5.56-0.26-8.67,2.29c-3.57,2.92-5.2,6.89-3.63,8.85
					c0.17,0.22,0.38,0.41,0.62,0.56c1.91,1.22,5.56,0.26,8.67-2.29c3.56-2.92,5.19-6.89,3.63-8.85
					C381.83,783.11,381.62,782.93,381.38,782.77z"/>
			</g>
		</g>
		<g>
			<g>
				<path class="st0" d="M381.52,786.39c0,0,3.92-5.41,3.38-6.48c0,0-4.62,5.46-5.2,5.02"/>
				<path class="st0" d="M381.67,786.5l-0.3-0.22c1.31-1.81,3.19-4.75,3.38-5.91c-2.11,2.47-4.61,5.16-5.17,4.72l0.22-0.3
					c0.42,0.02,2.86-2.52,4.95-5l0.18-0.21l0.13,0.25C385.63,780.94,382.34,785.58,381.67,786.5z"/>
			</g>
		</g>
		<g>
			<g>
				<path class="st0" d="M371.18,803.04c-2.91,2.29-4.15,5.5-2.78,7.16c1.37,1.66,4.84,1.15,7.75-1.14c2.91-2.29,4.15-5.5,2.78-7.16
					C377.56,800.24,374.09,800.75,371.18,803.04z"/>
				<path class="st0" d="M368.86,810.85L368.86,810.85c-0.23-0.15-0.43-0.33-0.6-0.53c-0.47-0.57-0.67-1.34-0.58-2.21
					c0.18-1.71,1.48-3.71,3.39-5.21c2.59-2.04,5.7-2.73,7.41-1.64c0.23,0.15,0.43,0.33,0.6,0.53c0.47,0.57,0.67,1.34,0.58,2.21
					c-0.18,1.71-1.48,3.71-3.39,5.21C373.68,811.24,370.57,811.93,368.86,810.85z M378.28,801.56c-1.58-1-4.51-0.32-6.98,1.62
					c-1.83,1.44-3.07,3.34-3.25,4.96c-0.08,0.77,0.09,1.44,0.5,1.94c0.14,0.18,0.32,0.33,0.52,0.45c1.58,1,4.51,0.32,6.98-1.62
					c1.83-1.44,3.07-3.34,3.25-4.96c0.08-0.77-0.09-1.44-0.5-1.94C378.65,801.84,378.47,801.69,378.28,801.56z"/>
			</g>
		</g>
		<g>
			<g>
				<path class="st0" d="M378.49,804.4c0,0,3.08-4.21,2.61-5.07c0,0-3.65,4.24-4.13,3.88"/>
				<path class="st0" d="M378.64,804.51l-0.3-0.22c1.06-1.45,2.39-3.56,2.6-4.5c-2.29,2.63-3.66,3.83-4.07,3.57
					c0,0-0.01-0.01-0.01-0.01l0.22-0.3c0.34-0.01,2.29-2,3.88-3.85l0.18-0.2l0.13,0.24C381.76,800.16,379.17,803.79,378.64,804.51z"
					/>
			</g>
		</g>
	</g>
</g>
</svg>
