<?xml version="1.0" encoding="utf-8"?>
<!-- Generator: Adobe Illustrator 25.0.0, SVG Export Plug-In . SVG Version: 6.00 Build 0)  -->
<svg version="1.1" id="Layer_1" xmlns="http://www.w3.org/2000/svg" xmlns:xlink="http://www.w3.org/1999/xlink" x="0px" y="0px"
	 viewBox="0 0 792 1224" style="enable-background:new 0 0 792 1224;" xml:space="preserve">
<style type="text/css">
	.st0{fill:#2B2B2B;}
</style>
<g>
	<g>
		<g>
			<g>
				<path class="st0" d="M449.74,458.45c10.85,6.05,18.66-10.36,15.87-15.23c-2.79-4.87,0.26-4.47-0.57-9.76
					c-0.82-5.3-9.23-8.95-9.23-8.95s-8-4.45-12.7-1.87c-4.7,2.57-2.53,4.74-8.09,5.49c-5.56,0.75-13.83,16.94-2.44,21.86
					c11.38,4.92,8.78,0.04,10.27,0.78C444.35,451.5,438.9,452.4,449.74,458.45z"/>
				<path class="st0" d="M449.65,458.61c-8.09-4.51-7.25-6.27-6.81-7.21c0.16-0.34,0.17-0.36-0.06-0.48
					c-0.23-0.11-0.25-0.09-0.42,0.24c-0.47,0.93-1.36,2.66-9.85-1.01c-6.03-2.62-6.11-8.03-5.63-10.96
					c0.87-5.34,4.82-10.8,8.12-11.25c3.1-0.42,3.71-1.26,4.56-2.41c0.63-0.86,1.42-1.94,3.47-3.06c4.01-2.19,10.38,0.63,12.23,1.54
					c0.4,0.2,0.63,0.32,0.63,0.33c0.02,0.01,0.26,0.11,0.66,0.31c1.86,0.92,7.98,4.26,8.68,8.78c0.36,2.31-0.02,3.59-0.32,4.61
					c-0.4,1.38-0.7,2.37,0.86,5.09c1.66,2.89-0.28,9.34-3.97,13.28c-1.97,2.1-6.1,5.21-11.59,2.5c0,0,0,0,0,0
					C450.02,458.81,449.84,458.71,449.65,458.61z M455.72,424.67c0,0-0.23-0.13-0.63-0.32c-1.82-0.9-8.04-3.66-11.89-1.55
					c-1.98,1.08-2.7,2.08-3.34,2.95c-0.87,1.19-1.55,2.12-4.81,2.56c-3.16,0.43-6.95,5.74-7.8,10.94
					c-0.45,2.73-0.41,7.71,4.86,10.31c0.18,0.09,0.36,0.17,0.55,0.26c8.17,3.53,8.98,1.94,9.37,1.18c0.15-0.3,0.35-0.68,0.91-0.4
					c0.57,0.28,0.38,0.66,0.24,0.97c-0.37,0.77-1.13,2.38,6.65,6.72c0.18,0.1,0.36,0.19,0.54,0.28c0,0,0,0,0,0
					c5.28,2.6,9.25-0.4,11.15-2.42c3.6-3.83,5.51-10.07,3.92-12.84c-1.64-2.85-1.31-3.97-0.9-5.38c0.31-1.04,0.65-2.22,0.31-4.45
					c-0.67-4.34-6.66-7.61-8.48-8.5C455.98,424.78,455.74,424.68,455.72,424.67z"/>
			</g>
		</g>
		<g>
			<g>
				
					<ellipse transform="matrix(0.4425 -0.8968 0.8968 0.4425 -109.8329 644.1932)" class="st0" cx="463.19" cy="410.43" rx="8.7" ry="5.83"/>
				<path class="st0" d="M457.8,407.77c2.17-4.39,6.35-6.78,9.33-5.31c2.97,1.47,3.63,6.24,1.46,10.63s-6.35,6.78-9.33,5.31
					C456.29,416.93,455.63,412.17,457.8,407.77z M458.13,407.94c-2.08,4.21-1.5,8.76,1.29,10.13c2.79,1.38,6.75-0.93,8.83-5.14
					c2.08-4.21,1.5-8.76-1.29-10.13C464.17,401.42,460.21,403.73,458.13,407.94z"/>
			</g>
		</g>
		<g>
			<g>
				<polyline class="st0" points="465.45,402.86 469.32,398.02 467.99,404.11 				"/>
				<polygon class="st0" points="468.97,398.75 465.59,402.97 465.3,402.74 469.67,397.28 468.17,404.15 467.8,404.07 				"/>
			</g>
		</g>
		<g>
			<g>
				
					<ellipse transform="matrix(0.7054 -0.7088 0.7088 0.7054 -160.6163 461.7559)" class="st0" cx="475.16" cy="424.09" rx="8.56" ry="4.84"/>
				<path class="st0" d="M468.99,430.29c-1.96-1.95-0.79-6.32,2.61-9.74c2.95-2.97,6.7-4.32,8.93-3.22c0.3,0.15,0.57,0.34,0.8,0.57
					c1.96,1.95,0.79,6.32-2.61,9.74c-2.95,2.97-6.7,4.32-8.93,3.22C469.49,430.71,469.22,430.52,468.99,430.29z M471.86,420.81
					c-3.26,3.27-4.43,7.41-2.61,9.21c0.2,0.2,0.44,0.37,0.7,0.5c2.08,1.03,5.66-0.3,8.5-3.15c3.26-3.27,4.43-7.41,2.61-9.21
					c-0.2-0.2-0.44-0.37-0.7-0.5C478.28,416.63,474.7,417.95,471.86,420.81z"/>
			</g>
		</g>
		<g>
			<g>
				<path class="st0" d="M478.91,419.98c0.64,0.38,4.66-5.54,4.66-5.54c0.68,1.01-2.64,6.82-2.64,6.82"/>
				<path class="st0" d="M480.77,421.16c1.11-1.95,2.67-5.1,2.71-6.27c-1.82,2.66-4.01,5.57-4.65,5.25c0,0-0.01,0-0.01-0.01
					l0.16-0.33c0.45-0.01,2.65-2.85,4.44-5.48l0.15-0.23l0.15,0.23c0.71,1.06-2.07,6.03-2.63,7.01L480.77,421.16z"/>
			</g>
		</g>
		<g>
			<g>
				<path class="st0" d="M480.01,436.94c1.73,1.59,0.9,4.95-1.85,7.49c-2.75,2.54-6.38,3.31-8.11,1.72
					c-1.73-1.59-0.9-4.95,1.85-7.49C474.65,436.11,478.28,435.34,480.01,436.94z"/>
				<path class="st0" d="M469.92,446.27c-0.63-0.58-0.96-1.4-0.96-2.37c0-1.75,1.05-3.76,2.81-5.39c2.44-2.26,5.65-3.19,7.64-2.21
					c0.27,0.13,0.51,0.3,0.72,0.49c0.63,0.58,0.96,1.4,0.96,2.37c0,1.75-1.05,3.76-2.81,5.39c-2.44,2.26-5.65,3.19-7.64,2.21
					C470.38,446.63,470.13,446.47,469.92,446.27z M472.03,438.79c-1.69,1.56-2.69,3.47-2.69,5.12c0,0.86,0.29,1.59,0.84,2.09
					c0.18,0.17,0.4,0.32,0.63,0.43c1.85,0.91,4.89,0.01,7.22-2.15c1.69-1.56,2.69-3.47,2.69-5.12c0-0.86-0.29-1.59-0.84-2.1
					c-0.18-0.17-0.4-0.32-0.63-0.43C477.4,435.73,474.36,436.63,472.03,438.79z"/>
			</g>
		</g>
		<g>
			<g>
				<path class="st0" d="M478.11,438.41c0.57,0.33,3.81-4.24,3.81-4.24c0.63,0.84-1.99,5.35-1.99,5.35"/>
				<path class="st0" d="M479.76,439.42c0.92-1.58,2.04-3.9,2.07-4.82c-1.47,2.05-3.23,4.26-3.81,3.98c0,0-0.01,0-0.01-0.01
					l0.16-0.33c0.39,0,2.16-2.17,3.58-4.18l0.15-0.21l0.15,0.2c0.68,0.9-1.53,4.79-1.98,5.56L479.76,439.42z"/>
			</g>
		</g>
		<g>
			<g>
				<path class="st0" d="M446.01,400.67c-2.59-0.33-5.24,3.19-5.9,7.85c-0.66,4.67,0.91,8.72,3.5,9.05c2.59,0.33,5.23-3.19,5.9-7.85
					C450.18,405.05,448.61,401,446.01,400.67z"/>
				<path class="st0" d="M439.93,408.49c0.67-4.76,3.41-8.36,6.11-8.01c0.32,0.04,0.63,0.13,0.92,0.28
					c2.17,1.07,3.33,4.85,2.74,8.98c-0.67,4.76-3.41,8.36-6.1,8.01c-0.32-0.04-0.63-0.13-0.92-0.28l0,0
					C440.5,416.4,439.35,412.63,439.93,408.49z M445.99,400.85c-2.49-0.32-5.04,3.14-5.69,7.7c-0.56,3.98,0.5,7.59,2.54,8.6
					c0.26,0.13,0.53,0.21,0.8,0.24c2.49,0.32,5.04-3.14,5.69-7.7c0.56-3.98-0.5-7.59-2.54-8.6
					C446.54,400.97,446.27,400.89,445.99,400.85z"/>
			</g>
		</g>
		<g>
			<g>
				<path class="st0" d="M445.82,403.65c-0.68-0.27,1.6-7.05,1.6-7.05c-1.2,0.09-3.79,6.25-3.79,6.25"/>
				<path class="st0" d="M447.41,396.42l0.28-0.02l-0.09,0.27c-1.03,3.07-1.94,6.47-1.71,6.82l-0.14,0.35
					c-0.66-0.25,0.33-3.78,1.35-6.87c-0.9,0.77-2.44,3.9-3.3,5.96l-0.34-0.15C443.9,401.73,446.16,396.51,447.41,396.42z"/>
			</g>
		</g>
		<g>
			<g>
				<path class="st0" d="M431.71,413.1c-2.13-0.31-4.23,2.41-4.68,6.09c-0.45,3.68,0.91,6.91,3.05,7.22
					c2.13,0.31,4.23-2.41,4.68-6.09C435.2,416.65,433.84,413.41,431.71,413.1z"/>
				<path class="st0" d="M426.84,419.17c0.3-2.41,1.33-4.55,2.7-5.6c0.7-0.53,1.46-0.76,2.19-0.65c0.26,0.04,0.52,0.12,0.77,0.24
					c1.81,0.89,2.84,3.92,2.44,7.18c-0.3,2.41-1.33,4.55-2.7,5.6c-0.7,0.53-1.46,0.76-2.19,0.65c-0.26-0.04-0.52-0.12-0.77-0.24l0,0
					C427.46,425.46,426.44,422.44,426.84,419.17z M431.68,413.29c-0.63-0.09-1.29,0.11-1.91,0.58c-1.29,0.99-2.27,3.04-2.56,5.35
					c-0.38,3.12,0.56,5.98,2.23,6.81c0.21,0.1,0.43,0.17,0.66,0.21c0.63,0.09,1.29-0.11,1.91-0.58c1.29-0.99,2.27-3.04,2.56-5.35
					c0.38-3.12-0.56-5.98-2.23-6.81C432.12,413.39,431.9,413.32,431.68,413.29z"/>
			</g>
		</g>
		<g>
			<g>
				<path class="st0" d="M431.61,415.46c-0.56-0.23,1.17-5.54,1.17-5.54c-0.98,0.05-2.99,4.86-2.99,4.86"/>
				<path class="st0" d="M432.77,409.73l0.27-0.01l-0.08,0.26c-0.75,2.32-1.45,5.01-1.28,5.31l-0.14,0.34c-0.01,0-0.01,0-0.01-0.01
					c-0.44-0.22-0.12-2.01,0.94-5.33c-0.69,0.66-1.81,2.9-2.5,4.55l-0.34-0.14C429.97,413.89,431.73,409.78,432.77,409.73z"/>
			</g>
		</g>
	</g>
	<g>
		<g>
			<g>
				<path class="st0" d="M345.98,520.27c11.77,3.96,16.45-13.6,12.81-17.88c-3.64-4.28-0.57-4.44-2.34-9.49
					c-1.78-5.06-10.71-7.11-10.71-7.11s-8.68-2.91-12.83,0.48c-4.15,3.39-1.62,5.13-6.94,6.88c-5.33,1.76-10.49,19.18,1.6,21.93
					c12.09,2.75,8.64-1.57,10.24-1.12C339.41,514.42,334.21,516.31,345.98,520.27z"/>
				<path class="st0" d="M345.92,520.45c-8.78-2.96-8.28-4.83-8.01-5.84c0.1-0.36,0.1-0.39-0.15-0.46
					c-0.25-0.07-0.26-0.04-0.37,0.31c-0.3,1-0.85,2.86-9.87,0.81c-6.41-1.47-7.47-6.78-7.54-9.75c-0.12-5.4,2.76-11.5,5.92-12.54
					c2.97-0.98,3.42-1.91,4.04-3.21c0.46-0.96,1.04-2.16,2.85-3.64c3.54-2.89,10.32-1.28,12.31-0.72c0.43,0.12,0.68,0.2,0.68,0.2
					c0.02,0,0.28,0.06,0.7,0.18c2,0.56,8.63,2.73,10.14,7.04c0.78,2.21,0.64,3.53,0.53,4.59c-0.14,1.43-0.25,2.46,1.78,4.84
					c2.16,2.54,1.44,9.23-1.48,13.78c-1.55,2.42-5.04,6.24-10.94,4.58c0,0,0,0,0,0C346.32,520.58,346.12,520.51,345.92,520.45z
					 M345.67,485.97c0,0-0.25-0.08-0.68-0.2c-1.95-0.55-8.57-2.12-11.97,0.65c-1.75,1.43-2.28,2.54-2.75,3.51
					c-0.63,1.32-1.14,2.37-4.26,3.4c-3.03,1-5.78,6.92-5.67,12.18c0.06,2.77,1.01,7.65,6.66,9.24c0.19,0.05,0.39,0.1,0.59,0.15
					c8.68,1.97,9.18,0.27,9.43-0.55c0.1-0.33,0.22-0.73,0.82-0.56c0.61,0.17,0.5,0.58,0.41,0.91c-0.22,0.83-0.68,2.55,7.77,5.39
					c0.2,0.07,0.39,0.13,0.58,0.18c0,0,0,0,0,0c5.67,1.59,9.03-2.09,10.52-4.42c2.84-4.43,3.57-10.91,1.51-13.34
					c-2.13-2.5-2.01-3.66-1.86-5.12c0.11-1.08,0.23-2.3-0.51-4.43c-1.45-4.14-7.94-6.26-9.89-6.81
					C345.95,486.03,345.69,485.97,345.67,485.97z"/>
			</g>
		</g>
		<g>
			<g>
				
					<ellipse transform="matrix(0.2708 -0.9626 0.9626 0.2708 -197.509 680.4604)" class="st0" cx="350.41" cy="470.6" rx="8.7" ry="5.83"/>
				<path class="st0" d="M344.62,468.97c1.33-4.72,5-7.82,8.2-6.93c3.19,0.9,4.71,5.47,3.38,10.18c-1.33,4.72-5,7.82-8.2,6.93
					C344.81,478.26,343.29,473.69,344.62,468.97z M344.98,469.08c-1.27,4.52,0.13,8.88,3.13,9.73c3,0.84,6.47-2.15,7.74-6.67
					s-0.13-8.88-3.13-9.73S346.25,464.56,344.98,469.08z"/>
			</g>
		</g>
		<g>
			<g>
				<polyline class="st0" points="351.24,462.74 354.16,457.28 353.96,463.51 				"/>
				<polygon class="st0" points="353.95,458.06 351.4,462.83 351.07,462.65 354.37,456.49 354.15,463.51 353.78,463.5 				"/>
			</g>
		</g>
		<g>
			<g>
				
					<ellipse transform="matrix(0.5637 -0.826 0.826 0.5637 -238.8829 511.4566)" class="st0" cx="364.67" cy="481.84" rx="8.56" ry="4.84"/>
				<path class="st0" d="M359.74,489.06c-2.29-1.56-1.94-6.07,0.78-10.05c2.36-3.46,5.8-5.48,8.19-4.8
					c0.32,0.09,0.62,0.23,0.89,0.41c2.29,1.56,1.94,6.07-0.78,10.05c-2.36,3.46-5.8,5.48-8.19,4.8
					C360.31,489.38,360.01,489.25,359.74,489.06z M360.83,479.22c-2.6,3.81-3,8.09-0.88,9.54c0.24,0.16,0.5,0.28,0.78,0.36
					c2.24,0.63,5.51-1.33,7.78-4.66c2.6-3.81,3-8.09,0.88-9.54c-0.24-0.16-0.5-0.28-0.78-0.36
					C366.37,473.93,363.1,475.89,360.83,479.22z"/>
			</g>
		</g>
		<g>
			<g>
				<path class="st0" d="M367.61,477.11c0.7,0.26,3.57-6.3,3.57-6.3c0.85,0.87-1.34,7.18-1.34,7.18"/>
				<path class="st0" d="M369.66,477.93c0.74-2.12,1.69-5.5,1.52-6.66c-1.3,2.95-2.92,6.21-3.61,6.02c-0.01,0-0.01,0-0.02,0
					l0.1-0.35c0.44-0.09,2.09-3.29,3.36-6.2l0.11-0.25l0.19,0.2c0.89,0.91-0.93,6.3-1.3,7.37L369.66,477.93z"/>
			</g>
		</g>
		<g>
			<g>
				<path class="st0" d="M371.79,493.58c1.99,1.25,1.79,4.7-0.45,7.7c-2.24,3-5.67,4.42-7.65,3.17c-1.99-1.25-1.79-4.7,0.45-7.7
					C366.38,493.75,369.8,492.33,371.79,493.58z"/>
				<path class="st0" d="M363.59,504.61c-0.72-0.45-1.2-1.2-1.38-2.15c-0.32-1.72,0.34-3.89,1.78-5.82c1.99-2.67,4.98-4.17,7.1-3.57
					c0.29,0.08,0.55,0.2,0.8,0.35c0.72,0.45,1.2,1.2,1.38,2.15c0.32,1.72-0.34,3.89-1.78,5.81c-1.99,2.67-4.98,4.17-7.1,3.57
					C364.1,504.88,363.83,504.76,363.59,504.61z M364.29,496.86c-1.37,1.84-2.01,3.91-1.71,5.52c0.16,0.85,0.58,1.51,1.21,1.91
					c0.21,0.13,0.45,0.24,0.7,0.31c1.99,0.56,4.81-0.89,6.71-3.43c1.37-1.84,2.01-3.91,1.71-5.52c-0.16-0.85-0.58-1.51-1.21-1.91
					c-0.21-0.13-0.45-0.24-0.7-0.31C369.01,492.87,366.19,494.31,364.29,496.86z"/>
			</g>
		</g>
		<g>
			<g>
				<path class="st0" d="M370.2,495.37c0.62,0.22,2.97-4.87,2.97-4.87c0.78,0.71-0.98,5.62-0.98,5.62"/>
				<path class="st0" d="M372.01,496.07c0.62-1.72,1.29-4.2,1.16-5.12c-1.07,2.29-2.39,4.78-3.01,4.61c0,0-0.01,0-0.01,0l0.1-0.35
					c0.38-0.07,1.73-2.53,2.76-4.77l0.11-0.23l0.19,0.17c0.83,0.76-0.63,4.99-0.93,5.83L372.01,496.07z"/>
			</g>
		</g>
		<g>
			<g>
				<path class="st0" d="M331.73,464.15c-2.61,0.15-4.56,4.09-4.36,8.8c0.2,4.71,2.49,8.41,5.1,8.26c2.61-0.15,4.56-4.09,4.36-8.8
					C336.63,467.69,334.34,464,331.73,464.15z"/>
				<path class="st0" d="M327.19,472.96c-0.21-4.8,1.83-8.84,4.54-9c0.32-0.02,0.64,0.02,0.96,0.11c2.33,0.66,4.16,4.16,4.34,8.33
					c0.21,4.8-1.83,8.84-4.53,8.99c-0.32,0.02-0.64-0.02-0.96-0.11l0,0C329.19,480.63,327.37,477.13,327.19,472.96z M331.74,464.33
					c-2.51,0.15-4.38,4.01-4.18,8.61c0.17,4.01,1.88,7.37,4.07,7.99c0.28,0.08,0.56,0.11,0.83,0.09c2.51-0.14,4.38-4.01,4.18-8.61
					c-0.17-4.01-1.88-7.37-4.07-7.99C332.3,464.35,332.02,464.32,331.74,464.33z"/>
			</g>
		</g>
		<g>
			<g>
				<path class="st0" d="M332.09,467.12c-0.71-0.14,0.28-7.23,0.28-7.23c-1.16,0.31-2.58,6.83-2.58,6.83"/>
				<path class="st0" d="M332.32,459.71l0.27-0.07l-0.04,0.28c-0.45,3.21-0.72,6.71-0.43,7.02l-0.07,0.36
					c-0.7-0.12-0.37-3.78,0.07-7c-0.74,0.92-1.68,4.28-2.16,6.46l-0.36-0.08C329.85,465.58,331.12,460.03,332.32,459.71z"/>
			</g>
		</g>
		<g>
			<g>
				<path class="st0" d="M319.94,478.99c-2.15,0.08-3.72,3.15-3.49,6.84c0.23,3.7,2.16,6.62,4.32,6.54
					c2.15-0.08,3.72-3.15,3.49-6.84C324.03,481.84,322.1,478.91,319.94,478.99z"/>
				<path class="st0" d="M316.27,485.85c-0.15-2.42,0.48-4.72,1.63-6c0.59-0.65,1.29-1.01,2.04-1.04c0.27-0.01,0.53,0.02,0.8,0.1
					c1.95,0.55,3.51,3.33,3.71,6.62c0.15,2.42-0.48,4.72-1.63,6c-0.59,0.65-1.29,1.01-2.04,1.04c-0.26,0.01-0.53-0.02-0.8-0.1l0,0
					C318.03,491.92,316.47,489.13,316.27,485.85z M319.95,479.18c-0.64,0.02-1.25,0.34-1.77,0.92c-1.09,1.21-1.68,3.4-1.53,5.73
					c0.19,3.13,1.64,5.78,3.44,6.28c0.23,0.06,0.46,0.09,0.68,0.08c0.64-0.02,1.25-0.34,1.77-0.92c1.09-1.21,1.68-3.4,1.54-5.73
					c-0.19-3.13-1.64-5.78-3.44-6.28C320.41,479.2,320.18,479.17,319.95,479.18z"/>
			</g>
		</g>
		<g>
			<g>
				<path class="st0" d="M320.28,481.33c-0.59-0.12,0.14-5.66,0.14-5.66c-0.95,0.22-2.05,5.33-2.05,5.33"/>
				<path class="st0" d="M320.37,475.49l0.26-0.06l-0.04,0.27c-0.32,2.41-0.5,5.19-0.29,5.46l-0.07,0.36c-0.01,0-0.01,0-0.02,0
					c-0.47-0.13-0.49-1.95-0.05-5.41c-0.56,0.78-1.25,3.18-1.62,4.93l-0.36-0.08C318.38,480.08,319.36,475.72,320.37,475.49z"/>
			</g>
		</g>
	</g>
	<g>
		<g>
			<g>
				<path class="st0" d="M431.86,626.15c12.4-0.72,10.18-18.76,5.21-21.37c-4.97-2.61-2.18-3.9-5.72-7.93
					c-3.54-4.03-12.59-2.59-12.59-2.59s-9.14,0.54-11.72,5.24c-2.58,4.69,0.42,5.36-3.87,8.98c-4.29,3.62-2.57,21.71,9.68,19.75
					c12.24-1.97,7.43-4.68,9.08-4.86C423.58,623.18,419.46,626.87,431.86,626.15z"/>
				<path class="st0" d="M431.87,626.33c-9.25,0.54-9.48-1.39-9.61-2.42c-0.05-0.37-0.06-0.4-0.31-0.37
					c-0.25,0.03-0.26,0.06-0.22,0.43c0.1,1.04,0.28,2.97-8.85,4.44c-6.49,1.03-9.46-3.5-10.64-6.22c-2.13-4.97-1.74-11.7,0.81-13.85
					c2.39-2.02,2.46-3.05,2.55-4.48c0.07-1.07,0.15-2.39,1.28-4.44c2.2-4,9.09-5.05,11.15-5.27c0.44-0.05,0.7-0.06,0.7-0.06
					c0.02,0,0.28-0.04,0.72-0.09c2.06-0.22,9.02-0.69,12.04,2.74c1.54,1.76,1.91,3.03,2.21,4.06c0.4,1.38,0.69,2.37,3.46,3.83
					c2.95,1.55,4.78,8.03,3.78,13.33c-0.54,2.83-2.34,7.67-8.43,8.33c0,0,0,0,0,0C432.29,626.3,432.08,626.32,431.87,626.33z
					 M418.76,594.44c0,0-0.26,0.02-0.7,0.06c-2.01,0.22-8.75,1.24-10.86,5.08c-1.09,1.98-1.17,3.2-1.23,4.29
					c-0.09,1.47-0.17,2.62-2.68,4.74c-2.44,2.06-2.78,8.58-0.71,13.42c1.09,2.55,3.79,6.72,9.63,6.09c0.2-0.02,0.4-0.05,0.6-0.08
					c8.79-1.41,8.62-3.18,8.54-4.03c-0.03-0.34-0.07-0.76,0.55-0.83c0.63-0.07,0.68,0.35,0.72,0.69c0.11,0.85,0.32,2.61,9.22,2.1
					c0.21-0.01,0.41-0.03,0.61-0.05c0,0,0,0,0,0c5.85-0.64,7.59-5.31,8.11-8.03c0.98-5.17-0.76-11.45-3.59-12.94
					c-2.91-1.53-3.23-2.64-3.64-4.05c-0.3-1.04-0.64-2.22-2.13-3.92c-2.9-3.3-9.7-2.84-11.72-2.62
					C419.04,594.4,418.78,594.44,418.76,594.44z"/>
			</g>
		</g>
		<g>
			<g>
				
					<ellipse transform="matrix(0.9941 -0.1084 0.1084 0.9941 -60.2354 48.651)" class="st0" cx="417.42" cy="578.42" rx="5.83" ry="8.7"/>
				<path class="st0" d="M411.44,579.07c-0.53-4.87,1.72-9.13,5.02-9.49c3.3-0.36,6.41,3.31,6.94,8.18s-1.72,9.13-5.02,9.49
					C415.08,587.62,411.97,583.94,411.44,579.07z M411.81,579.03c0.51,4.67,3.44,8.19,6.53,7.85s5.2-4.41,4.69-9.08
					c-0.51-4.67-3.44-8.19-6.53-7.85S411.3,574.37,411.81,579.03z"/>
			</g>
		</g>
		<g>
			<g>
				<polyline class="st0" points="415.25,570.82 415.91,564.66 418.06,570.51 				"/>
				<polygon class="st0" points="416.01,565.47 415.43,570.84 415.06,570.8 415.82,563.85 418.24,570.45 417.89,570.58 				"/>
			</g>
		</g>
		<g>
			<g>
				
					<ellipse transform="matrix(0.2143 -0.9768 0.9768 0.2143 -228.3014 883.216)" class="st0" cx="434.84" cy="583.52" rx="8.56" ry="4.84"/>
				<path class="st0" d="M432.97,592.06c-2.7-0.59-4.06-4.91-3.03-9.62c0.9-4.09,3.33-7.25,5.8-7.51c0.33-0.04,0.66-0.02,0.98,0.05
					c2.7,0.59,4.06,4.91,3.03,9.62c-0.9,4.09-3.33,7.25-5.8,7.51C433.62,592.14,433.29,592.13,432.97,592.06z M430.3,582.52
					c-0.99,4.51,0.24,8.62,2.75,9.17c0.28,0.06,0.57,0.08,0.86,0.04c2.31-0.25,4.61-3.29,5.48-7.22c0.99-4.51-0.24-8.62-2.75-9.17
					c-0.28-0.06-0.57-0.08-0.86-0.04C433.47,575.55,431.16,578.59,430.3,582.52z"/>
			</g>
		</g>
		<g>
			<g>
				<path class="st0" d="M435.81,578.03c0.74-0.02,0.95-7.18,0.95-7.18c1.12,0.49,1.44,7.17,1.44,7.17"/>
				<path class="st0" d="M438.01,578.03c-0.11-2.24-0.48-5.73-1.08-6.74c-0.11,3.22-0.39,6.85-1.1,6.93c-0.01,0-0.01,0-0.02,0
					l-0.04-0.37c0.37-0.25,0.71-3.83,0.8-7l0.01-0.28l0.25,0.11c1.16,0.51,1.49,6.19,1.55,7.33L438.01,578.03z"/>
			</g>
		</g>
		<g>
			<g>
				<path class="st0" d="M445.83,591.75c2.31,0.42,3.41,3.69,2.46,7.31c-0.95,3.62-3.6,6.22-5.92,5.8
					c-2.31-0.42-3.41-3.69-2.46-7.31S443.52,591.33,445.83,591.75z"/>
				<path class="st0" d="M442.34,605.04c-0.84-0.15-1.56-0.66-2.08-1.48c-0.94-1.47-1.13-3.74-0.52-6.06
					c0.85-3.22,3.06-5.72,5.26-5.96c0.3-0.03,0.59-0.02,0.87,0.03c0.84,0.15,1.56,0.66,2.08,1.48c0.94,1.47,1.13,3.74,0.52,6.06
					c-0.85,3.22-3.06,5.72-5.26,5.96C442.92,605.1,442.62,605.09,442.34,605.04z M440.1,597.6c-0.59,2.22-0.41,4.38,0.48,5.76
					c0.46,0.73,1.1,1.18,1.83,1.31c0.25,0.04,0.5,0.05,0.76,0.03c2.05-0.22,4.13-2.62,4.94-5.69c0.59-2.22,0.41-4.38-0.48-5.76
					c-0.46-0.73-1.1-1.18-1.84-1.32c-0.25-0.04-0.5-0.05-0.76-0.02C442.98,592.13,440.91,594.52,440.1,597.6z"/>
			</g>
		</g>
		<g>
			<g>
				<path class="st0" d="M445.02,594.01c0.66-0.03,0.93-5.62,0.93-5.62c0.99,0.37,1.19,5.58,1.19,5.58"/>
				<path class="st0" d="M446.96,593.97c-0.07-1.83-0.37-4.38-0.84-5.18c-0.14,2.52-0.43,5.33-1.08,5.4c0,0-0.01,0-0.01,0
					l-0.04-0.37c0.33-0.21,0.66-2.99,0.78-5.45l0.01-0.25l0.24,0.09c1.05,0.39,1.28,4.86,1.31,5.75L446.96,593.97z"/>
			</g>
		</g>
		<g>
			<g>
				<path class="st0" d="M397.68,579.41c-2.37,1.12-2.71,5.5-0.76,9.79c1.95,4.29,5.45,6.87,7.81,5.75c2.37-1.12,2.7-5.5,0.75-9.79
					C403.54,580.87,400.04,578.3,397.68,579.41z"/>
				<path class="st0" d="M396.75,589.28c-1.99-4.38-1.61-8.88,0.85-10.04c0.29-0.14,0.6-0.22,0.93-0.26
					c2.41-0.26,5.41,2.3,7.13,6.11c1.99,4.38,1.61,8.88-0.84,10.04c-0.29,0.14-0.6,0.22-0.93,0.26l0,0
					C401.48,595.65,398.48,593.08,396.75,589.28z M397.76,579.58c-2.27,1.07-2.57,5.35-0.67,9.55c1.66,3.66,4.5,6.13,6.76,5.89
					c0.28-0.03,0.56-0.11,0.81-0.23c2.27-1.07,2.57-5.35,0.66-9.55c-1.66-3.66-4.5-6.13-6.76-5.89
					C398.28,579.38,398.01,579.46,397.76,579.58z"/>
			</g>
		</g>
		<g>
			<g>
				<path class="st0" d="M399.12,582.03c-0.72,0.13-2.44-6.81-2.44-6.81c-0.96,0.72,0.16,7.3,0.16,7.3"/>
				<path class="st0" d="M396.57,575.08l0.22-0.17l0.07,0.27c0.78,3.14,1.84,6.5,2.22,6.67l0.07,0.37
					c-0.69,0.15-1.75-3.37-2.55-6.52c-0.34,1.13,0.04,4.6,0.41,6.8l-0.37,0.06C396.47,581.44,395.57,575.82,396.57,575.08z"/>
			</g>
		</g>
		<g>
			<g>
				<path class="st0" d="M392.29,597.59c-1.97,0.88-2.27,4.31-0.68,7.65s4.48,5.34,6.45,4.45c1.97-0.88,2.27-4.31,0.68-7.65
					C397.14,598.7,394.26,596.7,392.29,597.59z"/>
				<path class="st0" d="M391.44,605.32c-1.04-2.19-1.32-4.56-0.73-6.17c0.3-0.83,0.82-1.42,1.5-1.73c0.24-0.11,0.5-0.18,0.78-0.21
					c2.01-0.22,4.5,1.78,5.92,4.75c1.04,2.19,1.32,4.56,0.73,6.17c-0.3,0.83-0.82,1.42-1.5,1.73c-0.24,0.11-0.5,0.18-0.78,0.21l0,0
					C395.35,610.29,392.86,608.29,391.44,605.32z M392.37,597.76c-0.58,0.26-1.03,0.79-1.3,1.52c-0.56,1.53-0.29,3.78,0.72,5.89
					c1.35,2.83,3.68,4.74,5.54,4.54c0.23-0.03,0.46-0.09,0.66-0.18c0.58-0.26,1.03-0.79,1.3-1.52c0.56-1.53,0.29-3.78-0.72-5.89
					c-1.35-2.83-3.68-4.74-5.54-4.54C392.8,597.6,392.57,597.66,392.37,597.76z"/>
			</g>
		</g>
		<g>
			<g>
				<path class="st0" d="M393.47,599.63c-0.59,0.11-1.99-5.3-1.99-5.3c-0.8,0.56,0.09,5.7,0.09,5.7"/>
				<path class="st0" d="M391.38,594.17l0.22-0.15l0.07,0.26c0.61,2.36,1.47,5.01,1.77,5.17l0.07,0.37c-0.01,0-0.01,0-0.02,0
					c-0.49,0.05-1.18-1.63-2.07-5c-0.22,0.93,0.03,3.42,0.34,5.18l-0.37,0.06C391.24,599.18,390.52,594.77,391.38,594.17z"/>
			</g>
		</g>
	</g>
	<g>
		<g>
			<g>
				<path class="st0" d="M354.03,729.07c12-3.19,6.22-20.42,0.82-21.98c-5.39-1.56-2.92-3.39-7.19-6.63
					c-4.27-3.24-12.86-0.02-12.86-0.02s-8.84,2.36-10.43,7.48c-1.59,5.12,1.48,5.17-2,9.57c-3.48,4.4,1.83,21.79,13.43,17.41
					c11.6-4.38,6.34-6.08,7.93-6.58C345.33,727.82,342.03,732.26,354.03,729.07z"/>
				<path class="st0" d="M354.08,729.25c-8.95,2.38-9.57,0.54-9.9-0.45c-0.12-0.35-0.13-0.38-0.38-0.3
					c-0.24,0.08-0.24,0.11-0.13,0.46c0.3,1,0.87,2.85-7.78,6.12c-6.16,2.31-9.97-1.53-11.67-3.97c-3.08-4.44-4.04-11.12-1.98-13.73
					c1.94-2.45,1.8-3.48,1.6-4.9c-0.15-1.06-0.33-2.38,0.36-4.61c1.36-4.36,7.9-6.76,9.87-7.39c0.42-0.14,0.68-0.2,0.68-0.2
					c0.02-0.01,0.26-0.1,0.69-0.23c1.98-0.63,8.7-2.48,12.35,0.28c1.86,1.41,2.48,2.59,2.98,3.54c0.67,1.27,1.15,2.19,4.15,3.06
					c3.2,0.93,6.29,6.91,6.37,12.31c0.04,2.88-0.76,7.98-6.6,9.85c0,0,0,0,0,0C354.49,729.14,354.29,729.2,354.08,729.25z
					 M334.86,700.63c0,0-0.25,0.07-0.68,0.2c-1.93,0.62-8.32,2.96-9.62,7.15c-0.67,2.15-0.5,3.37-0.35,4.45
					c0.2,1.46,0.36,2.6-1.68,5.18c-1.98,2.5-1.01,8.96,1.99,13.29c1.58,2.28,5.06,5.83,10.65,4.03c0.19-0.06,0.38-0.13,0.57-0.2
					c8.33-3.14,7.81-4.84,7.56-5.66c-0.1-0.33-0.22-0.73,0.37-0.92c0.6-0.19,0.74,0.21,0.84,0.53c0.27,0.81,0.84,2.5,9.46,0.21
					c0.2-0.05,0.39-0.11,0.58-0.17c0,0,0,0,0,0c5.61-1.8,6.38-6.72,6.34-9.49c-0.07-5.26-3.04-11.07-6.1-11.96
					c-3.16-0.91-3.7-1.94-4.38-3.24c-0.5-0.96-1.08-2.05-2.87-3.41c-3.5-2.65-10.08-0.84-12.01-0.22
					C335.12,700.53,334.88,700.62,334.86,700.63z"/>
			</g>
		</g>
		<g>
			<g>
				
					<ellipse transform="matrix(0.9523 -0.3052 0.3052 0.9523 -193.3356 133.4837)" class="st0" cx="330.33" cy="685.2" rx="5.83" ry="8.7"/>
				<path class="st0" d="M324.6,687.04c-1.5-4.67-0.14-9.29,3.02-10.3c3.16-1.01,6.94,1.96,8.44,6.63c1.5,4.67,0.14,9.29-3.02,10.3
					C329.89,694.68,326.1,691.7,324.6,687.04z M324.96,686.92c1.43,4.47,5.01,7.34,7.97,6.39c2.96-0.95,4.21-5.36,2.77-9.83
					c-1.43-4.47-5.01-7.34-7.97-6.39C324.77,678.04,323.53,682.45,324.96,686.92z"/>
			</g>
		</g>
		<g>
			<g>
				<polyline class="st0" points="326.69,678.19 326.11,672.02 329.38,677.32 				"/>
				<polygon class="st0" points="326.37,672.79 326.87,678.17 326.5,678.2 325.85,671.24 329.54,677.22 329.22,677.42 				"/>
			</g>
		</g>
		<g>
			<g>
				
					<ellipse transform="matrix(0.0145 -0.9999 0.9999 0.0145 -343.248 1025.16)" class="st0" cx="348.42" cy="686.7" rx="8.56" ry="4.84"/>
				<path class="st0" d="M348.3,695.45c-2.77-0.04-4.96-3.99-4.9-8.81c0.06-4.18,1.82-7.77,4.18-8.52c0.32-0.1,0.64-0.15,0.97-0.15
					c2.77,0.04,4.96,3.99,4.9,8.81c-0.06,4.18-1.82,7.77-4.18,8.52C348.95,695.4,348.62,695.45,348.3,695.45z M343.77,686.64
					c-0.07,4.61,1.97,8.4,4.53,8.44c0.29,0,0.57-0.04,0.85-0.13c2.21-0.71,3.86-4.15,3.92-8.17c0.07-4.61-1.97-8.4-4.53-8.44
					c-0.29,0-0.57,0.04-0.85,0.13C345.48,679.17,343.83,682.61,343.77,686.64z"/>
			</g>
		</g>
		<g>
			<g>
				<path class="st0" d="M348.27,681.14c0.72-0.17-0.5-7.22-0.5-7.22c1.19,0.26,2.84,6.73,2.84,6.73"/>
				<path class="st0" d="M350.43,680.7c-0.55-2.17-1.62-5.52-2.41-6.39c0.54,3.18,0.99,6.79,0.31,7.01c0,0-0.01,0-0.02,0.01
					l-0.11-0.35c0.32-0.32-0.07-3.89-0.62-7.02l-0.05-0.27l0.27,0.06c1.24,0.27,2.7,5.77,2.98,6.87L350.43,680.7z"/>
			</g>
		</g>
		<g>
			<g>
				<path class="st0" d="M360.84,692.57c2.35-0.05,4.08,2.93,3.87,6.67c-0.21,3.74-2.29,6.81-4.63,6.87
					c-2.35,0.05-4.08-2.93-3.87-6.67C356.42,695.7,358.49,692.62,360.84,692.57z"/>
				<path class="st0" d="M360.08,706.29c-0.85,0.02-1.66-0.34-2.34-1.04c-1.22-1.26-1.86-3.44-1.72-5.83
					c0.19-3.32,1.85-6.22,3.96-6.9c0.28-0.09,0.57-0.14,0.86-0.15c0.85-0.02,1.66,0.34,2.34,1.04c1.21,1.26,1.86,3.44,1.72,5.83
					c-0.19,3.32-1.85,6.22-3.96,6.9C360.66,706.24,360.37,706.28,360.08,706.29z M356.39,699.45c-0.13,2.29,0.48,4.37,1.62,5.55
					c0.6,0.62,1.31,0.94,2.06,0.92c0.25-0.01,0.5-0.05,0.75-0.13c1.96-0.63,3.52-3.39,3.7-6.56c0.13-2.29-0.48-4.37-1.62-5.55
					c-0.6-0.62-1.31-0.94-2.06-0.92c-0.25,0.01-0.5,0.05-0.75,0.13C358.13,693.51,356.57,696.27,356.39,699.45z"/>
			</g>
		</g>
		<g>
			<g>
				<path class="st0" d="M360.5,694.94c0.64-0.16-0.21-5.7-0.21-5.7c1.04,0.16,2.29,5.23,2.29,5.23"/>
				<path class="st0" d="M362.39,694.52c-0.44-1.78-1.24-4.22-1.86-4.91c0.37,2.49,0.64,5.31,0.03,5.5c0,0-0.01,0-0.01,0l-0.11-0.35
					c0.28-0.27,0.05-3.06-0.33-5.5l-0.04-0.25l0.25,0.04c1.11,0.18,2.23,4.51,2.44,5.37L362.39,694.52z"/>
			</g>
		</g>
		<g>
			<g>
				<path class="st0" d="M311.19,690.12c-2.1,1.57-1.55,5.93,1.22,9.75c2.77,3.81,6.71,5.64,8.81,4.07c2.1-1.57,1.55-5.93-1.22-9.75
					C317.23,690.38,313.29,688.55,311.19,690.12z"/>
				<path class="st0" d="M312.26,699.97c-2.82-3.89-3.35-8.38-1.18-10c0.26-0.19,0.54-0.34,0.85-0.44c2.31-0.74,5.76,1.18,8.21,4.55
					c2.82,3.89,3.35,8.38,1.18,10c-0.26,0.19-0.54,0.34-0.86,0.44l0,0C318.17,705.27,314.71,703.35,312.26,699.97z M311.3,690.27
					c-2.01,1.5-1.45,5.76,1.26,9.49c2.36,3.25,5.64,5.11,7.8,4.42c0.27-0.09,0.52-0.22,0.75-0.38c2.01-1.5,1.45-5.76-1.26-9.49
					c-2.36-3.25-5.64-5.11-7.8-4.42C311.78,689.97,311.53,690.1,311.3,690.27z"/>
			</g>
		</g>
		<g>
			<g>
				<path class="st0" d="M313.13,692.4c-0.67,0.28-3.75-6.18-3.75-6.18c-0.8,0.89,1.62,7.13,1.62,7.13"/>
				<path class="st0" d="M309.24,686.09l0.19-0.21l0.12,0.25c1.39,2.92,3.1,6,3.51,6.09l0.14,0.34c-0.65,0.28-2.39-2.95-3.8-5.88
					c-0.11,1.17,0.96,4.5,1.77,6.58l-0.35,0.13C310.41,692.35,308.41,687.03,309.24,686.09z"/>
			</g>
		</g>
		<g>
			<g>
				<path class="st0" d="M309.55,709.01c-1.75,1.26-1.36,4.68,0.87,7.63c2.23,2.96,5.46,4.33,7.21,3.07
					c1.75-1.26,1.36-4.68-0.87-7.63C314.53,709.12,311.3,707.75,309.55,709.01z"/>
				<path class="st0" d="M310.27,716.75c-1.46-1.94-2.21-4.2-1.95-5.9c0.13-0.87,0.52-1.56,1.12-1.99c0.22-0.16,0.46-0.28,0.72-0.36
					c1.93-0.62,4.76,0.84,6.75,3.47c1.46,1.94,2.21,4.2,1.95,5.9c-0.13,0.87-0.52,1.56-1.12,1.99c-0.22,0.15-0.46,0.28-0.72,0.36
					l0,0C315.09,720.84,312.25,719.38,310.27,716.75z M309.66,709.16c-0.52,0.37-0.86,0.98-0.97,1.75
					c-0.24,1.61,0.48,3.76,1.88,5.62c1.89,2.51,4.55,3.91,6.34,3.34c0.22-0.07,0.43-0.18,0.61-0.31c0.52-0.37,0.86-0.98,0.97-1.75
					c0.24-1.61-0.48-3.76-1.88-5.62c-1.89-2.51-4.55-3.91-6.34-3.34C310.05,708.92,309.84,709.02,309.66,709.16z"/>
			</g>
		</g>
		<g>
			<g>
				<path class="st0" d="M311.12,710.77c-0.56,0.23-3.01-4.8-3.01-4.8c-0.67,0.71,1.23,5.57,1.23,5.57"/>
				<path class="st0" d="M307.97,705.84l0.18-0.2l0.12,0.24c1.07,2.19,2.44,4.61,2.77,4.71l0.14,0.34c0,0-0.01,0-0.01,0.01
					c-0.46,0.15-1.48-1.36-3.03-4.48c-0.03,0.96,0.72,3.34,1.37,5.01l-0.35,0.14C308.84,710.78,307.26,706.6,307.97,705.84z"/>
			</g>
		</g>
	</g>
	<g>
		<g>
			<g>
				<path class="st0" d="M460.88,809.99c10.8-6.14,0.82-21.33-4.8-21.47c-5.61-0.14-3.69-2.53-8.64-4.58
					c-4.95-2.04-12.44,3.26-12.44,3.26s-7.95,4.53-8.19,9.89c-0.24,5.35,2.75,4.62,0.51,9.76c-2.24,5.14,7.32,20.6,17.42,13.42
					c10.11-7.18,4.59-7.49,5.99-8.38C452.14,810.99,450.09,816.12,460.88,809.99z"/>
				<path class="st0" d="M460.97,810.15c-8.05,4.58-9.12,2.96-9.69,2.09c-0.2-0.31-0.23-0.33-0.44-0.19
					c-0.22,0.14-0.21,0.17-0.01,0.48c0.55,0.89,1.57,2.54-5.97,7.9c-5.37,3.8-10.03,1.06-12.29-0.87
					c-4.11-3.51-6.74-9.72-5.41-12.77c1.25-2.87,0.85-3.82,0.3-5.15c-0.41-0.99-0.92-2.21-0.82-4.55c0.2-4.56,5.91-8.55,7.66-9.66
					c0.37-0.24,0.6-0.37,0.6-0.37c0.01-0.01,0.23-0.16,0.6-0.4c1.75-1.11,7.79-4.62,12.01-2.87c2.16,0.89,3.06,1.87,3.78,2.66
					c0.97,1.06,1.67,1.82,4.8,1.9c3.33,0.08,7.84,5.08,9.29,10.28c0.77,2.77,1.3,7.91-3.87,11.21c0,0,0,0,0,0
					C461.34,809.93,461.16,810.04,460.97,810.15z M435.1,787.36c0,0-0.23,0.13-0.6,0.37c-1.71,1.09-7.3,4.98-7.49,9.36
					c-0.1,2.25,0.37,3.39,0.79,4.39c0.57,1.36,1.01,2.43-0.3,5.44c-1.27,2.92,1.31,8.92,5.31,12.34c2.11,1.8,6.38,4.35,11.33,1.19
					c0.17-0.11,0.34-0.22,0.5-0.34c7.25-5.16,6.32-6.67,5.87-7.4c-0.18-0.29-0.4-0.65,0.13-0.99c0.53-0.34,0.76,0.02,0.95,0.3
					c0.47,0.71,1.45,2.2,9.2-2.2c0.18-0.1,0.35-0.21,0.52-0.31c0,0,0,0,0,0c4.96-3.16,4.46-8.12,3.71-10.79
					c-1.41-5.07-5.76-9.93-8.94-10.01c-3.29-0.08-4.07-0.94-5.06-2.02c-0.73-0.8-1.56-1.71-3.65-2.57
					c-4.06-1.68-9.96,1.75-11.67,2.84C435.33,787.2,435.12,787.35,435.1,787.36z"/>
			</g>
		</g>
		<g>
			<g>
				
					<ellipse transform="matrix(0.8433 -0.5374 0.5374 0.8433 -348.8824 350.6024)" class="st0" cx="426.8" cy="773.59" rx="5.83" ry="8.7"/>
				<path class="st0" d="M421.73,776.82c-2.63-4.13-2.5-8.94,0.3-10.73s7.21,0.13,9.85,4.26s2.5,8.94-0.3,10.73
					S424.36,780.96,421.73,776.82z M422.04,776.62c2.52,3.96,6.71,5.82,9.33,4.15s2.71-6.25,0.18-10.21
					c-2.52-3.96-6.71-5.82-9.33-4.15S419.52,772.66,422.04,776.62z"/>
			</g>
		</g>
		<g>
			<g>
				<polyline class="st0" points="421.49,767.73 419.36,761.91 423.87,766.21 				"/>
				<polygon class="st0" points="419.8,762.6 421.66,767.67 421.31,767.8 418.91,761.23 424,766.08 423.74,766.35 				"/>
			</g>
		</g>
		<g>
			<g>
				
					<ellipse transform="matrix(0.9707 -0.2405 0.2405 0.9707 -172.2125 129.5323)" class="st0" cx="444.68" cy="770.44" rx="4.84" ry="8.56"/>
				<path class="st0" d="M446.78,778.93c-2.69,0.67-5.82-2.6-6.98-7.28c-1.01-4.06-0.22-7.97,1.87-9.31
					c0.28-0.18,0.58-0.31,0.9-0.39c2.69-0.67,5.82,2.6,6.98,7.28c1.01,4.06,0.22,7.97-1.87,9.31
					C447.4,778.72,447.1,778.85,446.78,778.93z M440.16,771.56c1.11,4.48,4.04,7.62,6.53,7.01c0.28-0.07,0.54-0.18,0.79-0.34
					c1.96-1.25,2.68-4.99,1.71-8.9c-1.11-4.48-4.04-7.62-6.53-7.01c-0.28,0.07-0.54,0.18-0.79,0.34
					C439.91,763.91,439.2,767.65,440.16,771.56z"/>
			</g>
		</g>
		<g>
			<g>
				<path class="st0" d="M443.11,765.1c0.66-0.35-2.32-6.86-2.32-6.86c1.22-0.06,4.46,5.79,4.46,5.79"/>
				<path class="st0" d="M445.09,764.12c-1.09-1.96-2.97-4.93-3.95-5.57c1.33,2.94,2.69,6.32,2.08,6.7c0,0-0.01,0.01-0.01,0.01
					l-0.2-0.31c0.23-0.39-1.06-3.75-2.38-6.63l-0.11-0.25l0.28-0.01c1.27-0.06,4.08,4.89,4.63,5.88L445.09,764.12z"/>
			</g>
		</g>
		<g>
			<g>
				<path class="st0" d="M458.18,772.95c2.26-0.65,4.7,1.8,5.44,5.47c0.75,3.67-0.48,7.17-2.73,7.82c-2.26,0.65-4.69-1.8-5.44-5.46
					C454.7,777.1,455.92,773.6,458.18,772.95z"/>
				<path class="st0" d="M460.94,786.42c-0.82,0.24-1.69,0.1-2.52-0.41c-1.49-0.91-2.67-2.85-3.15-5.2
					c-0.66-3.26,0.21-6.49,2.07-7.68c0.25-0.16,0.52-0.28,0.79-0.36c0.82-0.24,1.69-0.1,2.52,0.41c1.49,0.91,2.67,2.85,3.15,5.2
					c0.66,3.26-0.21,6.49-2.07,7.68C461.48,786.22,461.21,786.34,460.94,786.42z M455.63,780.74c0.46,2.25,1.57,4.11,2.98,4.96
					c0.74,0.45,1.51,0.57,2.23,0.37c0.24-0.07,0.48-0.18,0.7-0.32c1.74-1.11,2.54-4.17,1.91-7.29c-0.46-2.25-1.57-4.1-2.98-4.96
					c-0.74-0.45-1.51-0.57-2.23-0.37c-0.24,0.07-0.47,0.18-0.7,0.32C455.79,774.56,454.99,777.62,455.63,780.74z"/>
			</g>
		</g>
		<g>
			<g>
				<path class="st0" d="M458.45,775.34c0.58-0.32-1.65-5.45-1.65-5.45c1.05-0.11,3.54,4.48,3.54,4.48"/>
				<path class="st0" d="M460.18,774.45c-0.87-1.61-2.27-3.77-3.05-4.27c0.99,2.32,1.97,4.97,1.43,5.32c0,0-0.01,0.01-0.01,0.01
					l-0.2-0.31c0.2-0.33-0.73-2.98-1.72-5.23l-0.1-0.23l0.25-0.03c1.12-0.11,3.3,3.79,3.72,4.57L460.18,774.45z"/>
			</g>
		</g>
		<g>
			<g>
				<path class="st0" d="M409.54,783.22c-1.63,2.05,0.01,6.13,3.66,9.11c3.65,2.98,7.93,3.75,9.55,1.7
					c1.63-2.05-0.01-6.13-3.66-9.11C415.45,781.93,411.17,781.17,409.54,783.22z"/>
				<path class="st0" d="M413.08,792.48c-3.72-3.05-5.38-7.25-3.69-9.37c0.2-0.25,0.44-0.47,0.72-0.64c2.04-1.3,5.87-0.33,9.1,2.31
					c3.72,3.04,5.38,7.25,3.69,9.37c-0.2,0.25-0.44,0.47-0.72,0.64l0,0C420.14,796.09,416.31,795.12,413.08,792.48z M409.69,783.33
					c-1.56,1.97,0.07,5.94,3.63,8.85c3.11,2.54,6.75,3.51,8.67,2.29c0.24-0.15,0.45-0.34,0.62-0.56c1.56-1.96-0.07-5.94-3.63-8.85
					c-3.11-2.54-6.75-3.51-8.67-2.29C410.07,782.93,409.86,783.11,409.69,783.33z"/>
			</g>
		</g>
		<g>
			<g>
				<path class="st0" d="M412,784.93c-0.58,0.44-5.2-5.02-5.2-5.02c-0.54,1.07,3.38,6.48,3.38,6.48"/>
				<path class="st0" d="M406.63,779.82l0.13-0.25l0.18,0.21c2.09,2.47,4.52,5.01,4.95,5l0.22,0.3c-0.56,0.44-3.06-2.25-5.17-4.72
					c0.19,1.16,2.07,4.11,3.38,5.91l-0.3,0.22C409.35,785.58,406.06,780.94,406.63,779.82z"/>
			</g>
		</g>
		<g>
			<g>
				<path class="st0" d="M412.76,801.9c-1.37,1.66-0.13,4.87,2.78,7.16c2.91,2.29,6.38,2.8,7.75,1.14c1.37-1.66,0.13-4.87-2.78-7.16
					C417.6,800.75,414.13,800.24,412.76,801.9z"/>
				<path class="st0" d="M415.42,809.21c-1.91-1.5-3.2-3.5-3.39-5.21c-0.09-0.87,0.11-1.64,0.58-2.21c0.17-0.21,0.37-0.38,0.6-0.53
					c1.71-1.09,4.82-0.4,7.41,1.64c1.91,1.5,3.2,3.5,3.39,5.21c0.09,0.88-0.11,1.64-0.58,2.21c-0.17,0.2-0.37,0.38-0.6,0.53l0,0
					C421.12,811.93,418.01,811.24,415.42,809.21z M412.9,802.02c-0.41,0.49-0.58,1.16-0.5,1.94c0.17,1.62,1.42,3.52,3.25,4.96
					c2.47,1.94,5.4,2.62,6.98,1.62c0.2-0.13,0.37-0.28,0.52-0.45c0.41-0.49,0.58-1.16,0.5-1.94c-0.17-1.62-1.42-3.52-3.25-4.96
					c-2.47-1.94-5.4-2.62-6.98-1.62C413.22,801.69,413.05,801.84,412.9,802.02z"/>
			</g>
		</g>
		<g>
			<g>
				<path class="st0" d="M414.72,803.21c-0.48,0.36-4.13-3.88-4.13-3.88c-0.47,0.86,2.61,5.07,2.61,5.07"/>
				<path class="st0" d="M410.43,799.24l0.13-0.24l0.18,0.2c1.59,1.85,3.54,3.84,3.88,3.85l0.22,0.3c0,0-0.01,0.01-0.01,0.01
					c-0.41,0.26-1.78-0.94-4.07-3.57c0.21,0.93,1.54,3.05,2.6,4.5l-0.3,0.22C412.52,803.79,409.93,800.16,410.43,799.24z"/>
			</g>
		</g>
	</g>
</g>
</svg>
